<svg width="33" height="33" viewBox="0 0 33 33" fill="none" xmlns="http://www.w3.org/2000/svg">
<path d="M7.42505 26.3998C8.05916 25.6896 11.029 22.4215 11.8993 22.4215H21.1014C22.3625 22.4215 24.937 25.1305 25.575 26.0855M29.7 16.4998C29.7 23.79 23.7902 29.6998 16.5 29.6998C9.20989 29.6998 3.30005 23.79 3.30005 16.4998C3.30005 9.20965 9.20989 3.2998 16.5 3.2998C23.7902 3.2998 29.7 9.20965 29.7 16.4998ZM21.2284 12.0007C21.2284 9.48242 19.1025 7.4248 16.5004 7.4248C13.8984 7.4248 11.7724 9.48242 11.7724 12.0007C11.7724 14.5191 13.8984 16.5767 16.5004 16.5767C19.1025 16.5767 21.2284 14.5191 21.2284 12.0007Z" stroke="#7F4590" stroke-width="2"/>
</svg>
