<svg width="156" height="166" viewBox="0 0 156 166" fill="none" xmlns="http://www.w3.org/2000/svg">
<path d="M131.193 93.7119V32.2891L78 1.57715L24.8066 32.2891V93.7119L78 124.424L131.193 93.7119Z" fill="#A5A7E7" stroke="#D1D2FA"/>
<g filter="url(#filter0_d_128_683)">
<path d="M78 20L115.239 41.5V84.5L78 106L40.7609 84.5V41.5L78 20Z" fill="#9194F2"/>
</g>
<path d="M75.3333 71.0909C76.041 71.6562 76.9755 72 78 72C79.0245 72 79.959 71.6562 80.6667 71.0909M70.5076 68.1818C70.086 68.1818 69.8505 67.5194 70.1056 67.1514C70.6974 66.2975 71.2686 65.0451 71.2686 63.537L71.293 61.3517C71.293 57.2915 74.2958 54 78 54C81.7588 54 84.8058 57.3399 84.8058 61.4599L84.7814 63.537C84.7814 65.0555 85.3329 66.3147 85.9006 67.169C86.1458 67.5379 85.9097 68.1818 85.4933 68.1818H70.5076Z" stroke="white" stroke-width="2" stroke-linecap="round" stroke-linejoin="round"/>
<defs>
<filter id="filter0_d_128_683" x="0.760742" y="0" width="154.479" height="166" filterUnits="userSpaceOnUse" color-interpolation-filters="sRGB">
<feFlood flood-opacity="0" result="BackgroundImageFix"/>
<feColorMatrix in="SourceAlpha" type="matrix" values="0 0 0 0 0 0 0 0 0 0 0 0 0 0 0 0 0 0 127 0" result="hardAlpha"/>
<feOffset dy="20"/>
<feGaussianBlur stdDeviation="20"/>
<feComposite in2="hardAlpha" operator="out"/>
<feColorMatrix type="matrix" values="0 0 0 0 0.26125 0 0 0 0 0.279957 0 0 0 0 0.3 0 0 0 0.08 0"/>
<feBlend mode="normal" in2="BackgroundImageFix" result="effect1_dropShadow_128_683"/>
<feBlend mode="normal" in="SourceGraphic" in2="effect1_dropShadow_128_683" result="shape"/>
</filter>
</defs>
</svg>
