<svg width="156" height="166" viewBox="0 0 156 166" fill="none" xmlns="http://www.w3.org/2000/svg">
<path d="M131.193 93.7119V32.2891L78 1.57715L24.8066 32.2891V93.7119L78 124.424L131.193 93.7119Z" fill="#A5A7E7" stroke="#D1D2FA"/>
<g filter="url(#filter0_d_131_231)">
<path d="M78 20L115.239 41.5V84.5L78 106L40.7609 84.5V41.5L78 20Z" fill="#9194F2"/>
</g>
<path d="M75.7294 70.512C75.205 70.6853 74.9204 71.2509 75.0937 71.7753C75.267 72.2997 75.8326 72.5843 76.3569 72.411L75.7294 70.512ZM81.8622 71.8462L81.7722 70.8502L81.8622 71.8462ZM85.3536 71.0769L85.7891 71.9771H85.7891L85.3536 71.0769ZM88.6897 68.0681L87.9153 67.4354L88.6897 68.0681ZM86.408 66.1854L87.1121 66.8955L86.408 66.1854ZM84.8715 67.7087L85.5756 68.4188L84.8715 67.7087ZM80.6984 67.3846C80.1461 67.3846 79.6984 67.8323 79.6984 68.3846C79.6984 68.9369 80.1461 69.3846 80.6984 69.3846V67.3846ZM88.335 65.9962L87.7836 66.8305L88.335 65.9962ZM77.224 65.4915L77.6682 66.3875H77.6682L77.224 65.4915ZM81.4001 65.1128L81.6611 64.1475H81.6611L81.4001 65.1128ZM83.0309 65.5538L82.7699 66.5191H82.7699L83.0309 65.5538ZM83.5476 67.4829L82.8435 66.7727L83.5476 67.4829ZM81.934 67.6745C81.5418 68.0633 81.5391 68.6965 81.9279 69.0887C82.3168 69.4809 82.9499 69.4836 83.3421 69.0948L81.934 67.6745ZM76.0432 71.4615L76.3569 72.411C76.4545 72.3788 76.6797 72.3518 77.1001 72.3815C77.5 72.4098 77.9683 72.4794 78.5079 72.5634C79.5286 72.7224 80.8321 72.9433 81.9521 72.8421L81.8622 71.8462L81.7722 70.8502C80.9526 70.9242 79.9284 70.7605 78.8156 70.5872C78.2883 70.5051 77.7382 70.4216 77.2411 70.3865C76.7643 70.3528 76.2137 70.352 75.7294 70.512L76.0432 71.4615ZM81.8622 71.8462L81.9521 72.8421C83.4538 72.7065 84.2079 72.7421 85.7891 71.9771L85.3536 71.0769L84.9181 70.1767C83.7223 70.7553 83.3478 70.7079 81.7722 70.8502L81.8622 71.8462ZM85.3536 71.0769L85.7891 71.9771C87.219 71.2853 88.6284 69.7238 89.4642 68.7007L88.6897 68.0681L87.9153 67.4354C87.0698 68.4704 85.9056 69.699 84.9181 70.1767L85.3536 71.0769ZM86.408 66.1854L85.7039 65.4753L84.1675 66.9986L84.8715 67.7087L85.5756 68.4188L87.1121 66.8955L86.408 66.1854ZM83.2257 68.3846V67.3846H80.6984V68.3846V69.3846H83.2257V68.3846ZM84.8715 67.7087L84.1675 66.9986C83.9191 67.2448 83.5805 67.3846 83.2257 67.3846V68.3846V69.3846C84.1054 69.3846 84.9509 69.0382 85.5756 68.4188L84.8715 67.7087ZM88.335 65.9962L88.8864 65.162C87.8866 64.5011 86.5558 64.6307 85.7039 65.4753L86.408 66.1854L87.1121 66.8955C87.2897 66.7194 87.572 66.6906 87.7836 66.8305L88.335 65.9962ZM88.6897 68.0681L89.4642 68.7007C90.4053 67.5487 90.046 65.9284 88.8864 65.162L88.335 65.9962L87.7836 66.8305C88.0394 66.9995 88.0448 67.2769 87.9153 67.4354L88.6897 68.0681ZM71.7759 64.5385V65.5385H74.8794V64.5385V63.5385H71.7759V64.5385ZM75.6552 65.3077H74.6552V72.2308H75.6552H76.6552V65.3077H75.6552ZM74.8794 73V72H71.7759V73V74H74.8794V73ZM71 72.2308H72V65.3077H71H70V72.2308H71ZM71.7759 73V72C71.8915 72 72 72.0952 72 72.2308H71H70C70 73.216 70.8032 74 71.7759 74V73ZM75.6552 72.2308H74.6552C74.6552 72.0952 74.7637 72 74.8794 72V73V74C75.852 74 76.6552 73.216 76.6552 72.2308H75.6552ZM74.8794 64.5385V65.5385C74.7637 65.5385 74.6552 65.4432 74.6552 65.3077H75.6552H76.6552C76.6552 64.3225 75.852 63.5385 74.8794 63.5385V64.5385ZM71.7759 64.5385V63.5385C70.8032 63.5385 70 64.3225 70 65.3077H71H72C72 65.4432 71.8915 65.5385 71.7759 65.5385V64.5385ZM76.0432 66.0769L76.4873 66.9729L77.6682 66.3875L77.224 65.4915L76.7799 64.5956L75.599 65.181L76.0432 66.0769ZM79.6529 64.9231V65.9231H79.9711V64.9231V63.9231H79.6529V64.9231ZM81.4001 65.1128L81.1391 66.0781L82.7699 66.5191L83.0309 65.5538L83.2919 64.5884L81.6611 64.1475L81.4001 65.1128ZM83.5476 67.4829L82.8435 66.7727L81.934 67.6745L82.6381 68.3846L83.3421 69.0948L84.2517 68.193L83.5476 67.4829ZM83.0309 65.5538L82.7699 66.5191C82.8963 66.5533 82.922 66.6949 82.8435 66.7727L83.5476 67.4829L84.2517 68.193C85.4369 67.0179 84.8897 65.0205 83.2919 64.5884L83.0309 65.5538ZM79.9711 64.9231V65.9231C80.3657 65.9231 80.7585 65.9752 81.1391 66.0781L81.4001 65.1128L81.6611 64.1475C81.1102 63.9985 80.5419 63.9231 79.9711 63.9231V64.9231ZM77.224 65.4915L77.6682 66.3875C78.284 66.0822 78.9635 65.9231 79.6529 65.9231V64.9231V63.9231C78.6559 63.9231 77.6723 64.1532 76.7799 64.5956L77.224 65.4915ZM85.7415 59.1538H84.7415C84.7415 60.2928 83.8079 61.2308 82.6381 61.2308V62.2308V63.2308C84.8962 63.2308 86.7415 61.4136 86.7415 59.1538H85.7415ZM82.6381 62.2308V61.2308C81.4682 61.2308 80.5346 60.2928 80.5346 59.1538H79.5346H78.5346C78.5346 61.4136 80.3799 63.2308 82.6381 63.2308V62.2308ZM79.5346 59.1538H80.5346C80.5346 58.0149 81.4682 57.0769 82.6381 57.0769V56.0769V55.0769C80.3799 55.0769 78.5346 56.8941 78.5346 59.1538H79.5346ZM82.6381 56.0769V57.0769C83.8079 57.0769 84.7415 58.0149 84.7415 59.1538H85.7415H86.7415C86.7415 56.8941 84.8962 55.0769 82.6381 55.0769V56.0769ZM79.5346 59.1538V58.1538C78.3647 58.1538 77.4311 57.2159 77.4311 56.0769H76.4311H75.4311C75.4311 58.3366 77.2764 60.1538 79.5346 60.1538V59.1538ZM76.4311 56.0769H77.4311C77.4311 54.938 78.3647 54 79.5346 54V53V52C77.2764 52 75.4311 53.8172 75.4311 56.0769H76.4311ZM79.5346 53V54C80.7044 54 81.6381 54.938 81.6381 56.0769H82.6381H83.6381C83.6381 53.8172 81.7927 52 79.5346 52V53Z" fill="white"/>
<defs>
<filter id="filter0_d_131_231" x="0.760925" y="0" width="154.478" height="166" filterUnits="userSpaceOnUse" color-interpolation-filters="sRGB">
<feFlood flood-opacity="0" result="BackgroundImageFix"/>
<feColorMatrix in="SourceAlpha" type="matrix" values="0 0 0 0 0 0 0 0 0 0 0 0 0 0 0 0 0 0 127 0" result="hardAlpha"/>
<feOffset dy="20"/>
<feGaussianBlur stdDeviation="20"/>
<feComposite in2="hardAlpha" operator="out"/>
<feColorMatrix type="matrix" values="0 0 0 0 0.26125 0 0 0 0 0.279957 0 0 0 0 0.3 0 0 0 0.08 0"/>
<feBlend mode="normal" in2="BackgroundImageFix" result="effect1_dropShadow_131_231"/>
<feBlend mode="normal" in="SourceGraphic" in2="effect1_dropShadow_131_231" result="shape"/>
</filter>
</defs>
</svg>
