<svg width="146" height="146" viewBox="0 0 146 146" fill="none" xmlns="http://www.w3.org/2000/svg">
<path d="M131.803 87.1972C139.644 54.7212 119.673 22.038 87.1971 14.1971C54.7212 6.35628 22.038 26.327 14.1971 58.8029C6.35627 91.2788 26.3269 123.962 58.8029 131.803C91.2788 139.644 123.962 119.673 131.803 87.1972Z" fill="#F5F5F5"/>
<path d="M75.715 99.6738C75.7029 102.434 73.4543 104.662 70.6938 104.649C67.9333 104.635 65.7054 102.388 65.7188 99.6276C65.731 96.8671 67.9795 94.6392 70.74 94.6526C73.5018 94.6648 75.7284 96.9133 75.715 99.6738Z" fill="#455A64"/>
<path d="M60.7285 93.2493C66.2179 87.4862 75.1391 87.3099 80.7684 92.9854C83.3197 95.5574 87.3146 91.6014 84.762 89.0282C77.0374 81.2428 64.3573 81.289 56.7714 89.2556C54.2772 91.8738 58.227 95.876 60.7285 93.2493Z" fill="#455A64"/>
<path d="M43.7448 69.9831C51.3453 63.4126 60.4185 59.2767 70.5789 59.2511C80.6493 59.2256 90.5799 62.8009 97.9555 69.7277C100.591 72.2024 104.594 68.2538 101.949 65.7706C93.5009 57.8356 82.1694 53.6 70.6045 53.6292C58.913 53.6583 48.5216 58.4376 39.7876 65.9882C37.0454 68.3596 41.0171 72.3411 43.7448 69.9831Z" fill="#455A64"/>
<path d="M50.4573 82.876C55.5527 77.3672 62.6936 73.9171 70.2406 73.7456C77.9932 73.5693 85.4782 76.7616 90.8679 82.2996C93.3961 84.896 97.3886 80.9388 94.8615 78.3424C88.4832 71.7902 79.4464 67.9145 70.2674 68.1237C61.2903 68.3292 52.5904 72.2997 46.5014 78.8824C44.0461 81.5347 47.9936 85.5393 50.4573 82.876Z" fill="#455A64"/>
<path d="M117.926 59.4164C119.401 51.0741 113.833 43.1157 105.491 41.6408C97.149 40.1658 89.1905 45.7328 87.7156 54.0751C86.2406 62.4174 91.8077 70.3758 100.15 71.8508C108.492 73.3257 116.451 67.7587 117.926 59.4164Z" fill="#FF725E"/>
<path d="M109.146 52.4575L106.973 50.2836L97.2326 60.0237L99.4065 62.1975L109.146 52.4575Z" fill="white"/>
<path d="M99.4219 50.2888L97.248 52.4626L106.988 62.2026L109.162 60.0288L99.4219 50.2888Z" fill="white"/>
</svg>
