<svg width="170" height="182" viewBox="0 0 170 182" fill="none" xmlns="http://www.w3.org/2000/svg">
<path d="M138.193 101.712V40.2891L85 9.57715L31.8066 40.2891V101.712L85 132.424L138.193 101.712Z" fill="url(#paint0_linear_68_63)" stroke="#FCE5C0"/>
<g filter="url(#filter0_d_68_63)">
<path d="M85 20L129.167 45.5V96.5L85 122L40.8327 96.5V45.5L85 20Z" fill="white"/>
</g>
<path d="M85 96C71.1929 96 60 84.807 60 71C60 57.1929 71.1929 46 85 46C98.807 46 110 57.1929 110 71C110 84.807 98.807 96 85 96ZM85 91C96.0457 91 105 82.0457 105 71C105 59.9543 96.0457 51 85 51C73.9543 51 65 59.9543 65 71C65 82.0457 73.9543 91 85 91ZM87.5 71H97.5V76H82.5V58.5H87.5V71Z" fill="#FFBB56"/>
<defs>
<filter id="filter0_d_68_63" x="0.832764" y="0" width="168.334" height="182" filterUnits="userSpaceOnUse" color-interpolation-filters="sRGB">
<feFlood flood-opacity="0" result="BackgroundImageFix"/>
<feColorMatrix in="SourceAlpha" type="matrix" values="0 0 0 0 0 0 0 0 0 0 0 0 0 0 0 0 0 0 127 0" result="hardAlpha"/>
<feOffset dy="20"/>
<feGaussianBlur stdDeviation="20"/>
<feComposite in2="hardAlpha" operator="out"/>
<feColorMatrix type="matrix" values="0 0 0 0 0.26125 0 0 0 0 0.279957 0 0 0 0 0.3 0 0 0 0.08 0"/>
<feBlend mode="normal" in2="BackgroundImageFix" result="effect1_dropShadow_68_63"/>
<feBlend mode="normal" in="SourceGraphic" in2="effect1_dropShadow_68_63" result="shape"/>
</filter>
<linearGradient id="paint0_linear_68_63" x1="85" y1="133" x2="85" y2="33.5" gradientUnits="userSpaceOnUse">
<stop stop-color="#F7E1BD"/>
<stop offset="1" stop-color="#F7E1BD" stop-opacity="0"/>
</linearGradient>
</defs>
</svg>
