<svg width="170" height="182" viewBox="0 0 170 182" fill="none" xmlns="http://www.w3.org/2000/svg">
<path d="M138.193 101.712V40.2891L85 9.57715L31.8066 40.2891V101.712L85 132.424L138.193 101.712Z" fill="url(#paint0_linear_2153_67)" stroke="#F9DEDC"/>
<g filter="url(#filter0_d_2153_67)">
<path d="M85 20L129.167 45.5V96.5L85 122L40.8327 96.5V45.5L85 20Z" fill="white"/>
</g>
<path d="M88.5248 71L99.2748 60.275C99.7456 59.8042 100.01 59.1657 100.01 58.5C100.01 57.8342 99.7456 57.1957 99.2748 56.725C98.8041 56.2542 98.1656 55.9897 97.4998 55.9897C96.8341 55.9897 96.1956 56.2542 95.7248 56.725L84.9998 67.475L74.2748 56.725C73.8041 56.2542 73.1656 55.9897 72.4998 55.9897C71.8341 55.9897 71.1956 56.2542 70.7248 56.725C70.2541 57.1957 69.9896 57.8342 69.9896 58.5C69.9896 59.1657 70.2541 59.8042 70.7248 60.275L81.4748 71L70.7248 81.725C70.4905 81.9574 70.3045 82.2339 70.1776 82.5385C70.0507 82.8432 69.9854 83.1699 69.9854 83.5C69.9854 83.83 70.0507 84.1568 70.1776 84.4614C70.3045 84.7661 70.4905 85.0426 70.7248 85.275C70.9573 85.5093 71.2338 85.6953 71.5384 85.8222C71.8431 85.9491 72.1698 86.0145 72.4998 86.0145C72.8299 86.0145 73.1566 85.9491 73.4613 85.8222C73.7659 85.6953 74.0424 85.5093 74.2748 85.275L84.9998 74.525L95.7248 85.275C95.9573 85.5093 96.2338 85.6953 96.5384 85.8222C96.8431 85.9491 97.1698 86.0145 97.4998 86.0145C97.8299 86.0145 98.1566 85.9491 98.4613 85.8222C98.7659 85.6953 99.0424 85.5093 99.2748 85.275C99.5092 85.0426 99.6952 84.7661 99.8221 84.4614C99.949 84.1568 100.014 83.83 100.014 83.5C100.014 83.1699 99.949 82.8432 99.8221 82.5385C99.6952 82.2339 99.5092 81.9574 99.2748 81.725L88.5248 71Z" fill="#FF0000"/>
<defs>
<filter id="filter0_d_2153_67" x="0.83252" y="0" width="168.335" height="182" filterUnits="userSpaceOnUse" color-interpolation-filters="sRGB">
<feFlood flood-opacity="0" result="BackgroundImageFix"/>
<feColorMatrix in="SourceAlpha" type="matrix" values="0 0 0 0 0 0 0 0 0 0 0 0 0 0 0 0 0 0 127 0" result="hardAlpha"/>
<feOffset dy="20"/>
<feGaussianBlur stdDeviation="20"/>
<feComposite in2="hardAlpha" operator="out"/>
<feColorMatrix type="matrix" values="0 0 0 0 0.26125 0 0 0 0 0.279957 0 0 0 0 0.3 0 0 0 0.08 0"/>
<feBlend mode="normal" in2="BackgroundImageFix" result="effect1_dropShadow_2153_67"/>
<feBlend mode="normal" in="SourceGraphic" in2="effect1_dropShadow_2153_67" result="shape"/>
</filter>
<linearGradient id="paint0_linear_2153_67" x1="85" y1="133" x2="85" y2="33.5" gradientUnits="userSpaceOnUse">
<stop stop-color="#FFB3B3"/>
<stop offset="1" stop-color="#F7E1BD" stop-opacity="0"/>
</linearGradient>
</defs>
</svg>
