<svg width="24" height="24" viewBox="0 0 24 24" fill="none" xmlns="http://www.w3.org/2000/svg">
<path d="M12 22.3125C17.6954 22.3125 22.3125 17.6954 22.3125 12C22.3125 6.30456 17.6954 1.6875 12 1.6875C6.30456 1.6875 1.6875 6.30456 1.6875 12C1.6875 17.6954 6.30456 22.3125 12 22.3125Z" stroke="#1E1E1E" stroke-width="0.75"/>
<path d="M12.9374 17.25C12.9374 17.7678 12.5177 18.1875 11.9999 18.1875C11.4822 18.1875 11.0624 17.7678 11.0624 17.25C11.0624 16.7322 11.4822 16.3125 11.9999 16.3125C12.5177 16.3125 12.9374 16.7322 12.9374 17.25ZM10.5939 7.12206C10.543 6.31087 11.1872 5.625 11.9999 5.625C12.8127 5.625 13.4569 6.31087 13.406 7.12206L12.9563 14.2893C12.9246 14.7942 12.5059 15.1875 11.9999 15.1875C11.494 15.1875 11.0753 14.7942 11.0436 14.2893L10.5939 7.12206Z" stroke="#1E1E1E" stroke-width="0.75"/>
</svg>
