<svg width="24" height="24" viewBox="0 0 24 24" fill="none" xmlns="http://www.w3.org/2000/svg">
<path d="M2.11095 20.2795H21.8827C22.79 20.2795 23.5281 19.5415 23.5281 18.6344C23.5423 7.94547 23.5282 6.03601 23.5281 5.36585C23.5281 4.45854 22.79 3.72049 21.8827 3.72049H2.11095C1.20388 3.72049 0.46582 4.45854 0.46582 5.36585V18.6344C0.465816 19.5415 1.20387 20.2795 2.11095 20.2795ZM22.605 10.4836H1.4583V8.51166H22.605L22.605 10.4836ZM1.38889 5.36585C1.38889 4.96764 1.71274 4.64357 2.11095 4.64357H21.8827C22.2809 4.64357 22.605 4.96764 22.605 5.36585V7.58858H1.38889V5.36585ZM1.38889 11.4066H22.605V18.6344C22.605 19.0326 22.2809 19.3565 21.8827 19.3565H2.11095C1.71274 19.3565 1.3889 19.0326 1.3889 18.6344L1.38889 11.4066Z" fill="#1E1E1E"/>
<path d="M19.3362 16.9555H20.4296C21.0967 16.9555 21.6396 16.4126 21.6396 15.7453V14.6518C21.6396 13.9848 21.0967 13.4419 20.4296 13.4419H19.3362C18.6689 13.4419 18.126 13.9848 18.126 14.6518V15.7453C18.126 16.4126 18.6689 16.9555 19.3362 16.9555ZM19.0491 14.6518C19.0491 14.4936 19.178 14.3649 19.3362 14.3649H20.4296C20.5878 14.3649 20.7165 14.4936 20.7165 14.6518V15.7453C20.7165 15.9035 20.5878 16.0324 20.4296 16.0324H19.3362C19.178 16.0324 19.0491 15.9035 19.0491 15.7453V14.6518Z" fill="#1E1E1E"/>
<path d="M15.5742 13.8323H4.33716V14.7554H15.5742V13.8323Z" fill="#1E1E1E"/>
<path d="M15.5742 16.7991H4.33716V17.7221H15.5742V16.7991Z" fill="#1E1E1E"/>
</svg>
