<svg width="26" height="26" viewBox="0 0 26 26" fill="none" xmlns="http://www.w3.org/2000/svg">
<path d="M7.71594 2.43507C7.71594 1.98632 8.07971 1.62256 8.52844 1.62256H9.34656C9.79529 1.62256 10.1591 1.98632 10.1591 2.43507V3.24875H7.71594V2.43507ZM5.6875 4.87499C5.23877 4.87499 4.875 5.23876 4.875 5.68749V7.31249H13V5.68749C13 5.23876 12.6362 4.87499 12.1875 4.87499H5.6875ZM13.8167 8.93749C14.2424 8.93828 14.5912 9.26636 14.625 9.68346V24.3749H13.8125C13.7858 24.3749 13.7593 24.3736 13.7332 24.3712H10.5403C10.0916 24.3712 9.72779 24.0074 9.72779 23.5587V22.1233C9.72779 21.6747 9.36401 21.3108 8.91529 21.3108C8.46656 21.3108 8.10279 21.6747 8.10279 22.1233V23.5587C8.10279 24.0074 7.73901 24.3712 7.29029 24.3712H4.0625C3.61377 24.3712 3.25 24.0074 3.25 23.5587V9.74999C3.25 9.3015 3.61337 8.93789 4.06177 8.93749H13.8167ZM7.30457 13.8125C7.7533 13.8125 8.11707 13.4487 8.11707 13V12.1875C8.11707 11.7388 7.7533 11.375 7.30457 11.375C6.85583 11.375 6.49207 11.7388 6.49207 12.1875V13C6.49207 13.4487 6.85583 13.8125 7.30457 13.8125ZM6.49207 17.0564C6.49207 17.5053 6.85583 17.8689 7.30457 17.8689C7.7533 17.8689 8.11707 17.5053 8.11707 17.0564V16.2439C8.11707 15.7952 7.7533 15.4314 7.30457 15.4314C6.85583 15.4314 6.49207 15.7952 6.49207 16.2439V17.0564ZM9.7508 17.0564C9.7508 17.5053 10.1146 17.8689 10.5633 17.8689C11.012 17.8689 11.3758 17.5053 11.3758 17.0564V16.2439C11.3758 15.7952 11.012 15.4314 10.5633 15.4314C10.1146 15.4314 9.7508 15.7952 9.7508 16.2439V17.0564ZM9.7508 13C9.7508 13.4487 10.1146 13.8125 10.5633 13.8125C11.012 13.8125 11.3758 13.4487 11.3758 13V12.1875C11.3758 11.7388 11.012 11.375 10.5633 11.375C10.1146 11.375 9.7508 11.7388 9.7508 12.1875V13ZM16.25 24.3749H21.9375C22.3862 24.3749 22.75 24.0113 22.75 23.5624V18.6874C22.75 14.9235 19.9062 11.8238 16.25 11.4196V24.3749ZM17.875 17.0678C17.875 16.6191 18.2388 16.2553 18.6875 16.2553H19.5C19.9487 16.2553 20.3125 16.6191 20.3125 17.0678C20.3125 17.5166 19.9487 17.8803 19.5 17.8803H18.6875C18.2388 17.8803 17.875 17.5166 17.875 17.0678ZM18.6875 19.5064H19.5C19.9487 19.5064 20.3125 19.8703 20.3125 20.3189C20.3125 20.7676 19.9487 21.1314 19.5 21.1314H18.6875C18.2388 21.1314 17.875 20.7676 17.875 20.3189C17.875 19.8703 18.2388 19.5064 18.6875 19.5064Z" fill="#ADB4C0"/>
</svg>
