<svg width="24" height="24" viewBox="0 0 24 24" fill="none" xmlns="http://www.w3.org/2000/svg">
<path d="M19.6875 15.1875V19.875C19.6875 21.1176 18.6801 22.125 17.4375 22.125H6.5625C5.31986 22.125 4.3125 21.1176 4.3125 19.875V4.125C4.3125 2.88236 5.31986 1.875 6.5625 1.875H14.8915C15.2362 1.875 15.5671 2.01062 15.8127 2.25255L18.3756 4.77765L19.3382 5.81732C19.5628 6.05992 19.6875 6.37836 19.6875 6.70898V11.3438" stroke="#1E1E1E" stroke-width="0.75"/>
<path d="M15.1875 2.25V5.0625C15.1875 5.99449 15.943 6.75 16.875 6.75H19.6875" stroke="#1E1E1E" stroke-width="0.75"/>
<path d="M6.5625 11.0625H17.25M6.5625 13.6875H15.1875M6.5625 16.3125H12.9375M6.5625 18.9375H12.375M6.5625 8.4375H13.5" stroke="#1E1E1E" stroke-width="0.75" stroke-linecap="round"/>
<path d="M14.4513 17.0493C14.5292 16.6954 14.7068 16.3712 14.9631 16.115L20.0292 11.0488C20.5394 10.5387 21.3665 10.5387 21.8767 11.0488C22.3868 11.559 22.3868 12.3861 21.8767 12.8963L16.8105 17.9625C16.5543 18.2187 16.2301 18.3963 15.8762 18.4742L14.0488 18.8768L14.4513 17.0493Z" stroke="#1E1E1E" stroke-width="0.75"/>
</svg>
