<svg width="40" height="40" viewBox="0 0 40 40" fill="none" xmlns="http://www.w3.org/2000/svg">
<path d="M32.5922 30.7577C30.6363 29.9763 27.9836 29.3896 25.0333 29.0789C28.8498 23.9303 33.0751 17.3669 33.0751 13.075C33.0751 5.86539 27.2097 0 20.0001 0C12.7905 0 6.92514 5.86539 6.92514 13.075C6.92514 15.7194 8.58811 19.6025 11.8677 24.6165C12.8737 26.1545 13.9457 27.6695 14.9844 29.077C12.0295 29.387 9.37225 29.9737 7.41279 30.7556C4.29147 32.0013 3.63623 33.431 3.63623 34.4111C3.63623 38.0413 12.0672 40 20.0001 40C27.9329 40 36.364 38.0413 36.364 34.4112C36.3639 33.4318 35.7095 32.0029 32.5922 30.7577ZM8.17514 13.075C8.17514 6.55469 13.4797 1.25 20.0001 1.25C26.5204 1.25 31.8251 6.55469 31.8251 13.075C31.8251 15.4984 30.2526 19.1326 27.1515 23.8766C24.6937 27.6365 21.8392 31.2305 20.0004 33.5236C16.3332 28.9416 8.17514 18.5275 8.17514 13.075ZM19.5126 34.9137C19.5711 34.9867 19.6453 35.0456 19.7297 35.0861C19.8141 35.1265 19.9065 35.1476 20.0001 35.1476C20.0936 35.1476 20.186 35.1265 20.2704 35.0861C20.3548 35.0456 20.429 34.9867 20.4876 34.9137L20.6719 34.6839C21.1259 34.1193 21.5782 33.5532 22.0287 32.9858C25.1348 33.2501 26.3794 34.0096 26.4806 34.2685C26.4293 34.392 26.0144 34.7766 24.6773 35.1246C23.4092 35.4546 21.7481 35.6363 20.0001 35.6363C18.252 35.6363 16.591 35.4546 15.3228 35.1246C13.9857 34.7766 13.5709 34.392 13.5196 34.2685C13.6208 34.0095 14.8664 33.2495 17.9752 32.9855C18.5597 33.7261 19.0825 34.3776 19.5126 34.9137ZM30.9411 37.3251C28.0276 38.2439 24.142 38.75 20.0001 38.75C15.8581 38.75 11.9726 38.2439 9.05904 37.3251C6.44615 36.501 4.88623 35.4116 4.88623 34.4112C4.88623 32.8181 8.98264 30.8465 15.8593 30.2485C16.2746 30.7983 16.6796 31.3261 17.0672 31.8255C15.1872 32.0605 12.2672 32.6813 12.2672 34.2687C12.2672 36.3349 17.1279 36.8862 20.0001 36.8862C22.8723 36.8862 27.7331 36.3349 27.7331 34.2687C27.7331 32.6833 24.8192 32.062 22.9407 31.8265C23.3488 31.3035 23.7536 30.7779 24.1548 30.2497C31.0227 30.8491 35.1139 32.8198 35.1139 34.4111C35.1139 35.4117 33.554 36.501 30.9411 37.3251ZM26.657 13.0598C26.657 9.38922 23.6707 6.40289 20.0001 6.40289C16.3294 6.40289 13.343 9.38922 13.343 13.0598C13.343 16.7305 16.3294 19.7168 20.0001 19.7168C23.6708 19.7168 26.657 16.7305 26.657 13.0598ZM20.0001 18.4668C17.0186 18.4668 14.593 16.0413 14.593 13.0598C14.593 10.0784 17.0187 7.65289 20.0001 7.65289C22.9815 7.65289 25.407 10.0784 25.407 13.0598C25.407 16.0413 22.9815 18.4668 20.0001 18.4668Z" fill="#4C4C4C"/>
</svg>
