<svg width="24" height="24" viewBox="0 0 24 24" fill="none" xmlns="http://www.w3.org/2000/svg">
<path d="M7.97363 14.0497C8.02836 14.0135 8.0897 13.9883 8.15415 13.9757C8.21861 13.9632 8.28491 13.9634 8.34926 13.9765C8.41362 13.9895 8.47477 14.0152 8.52922 14.0519C8.58368 14.0886 8.63037 14.1356 8.66663 14.1904C9.19988 14.9947 10.4498 15.6334 12 15.6334C13.5502 15.6334 14.8001 14.9947 15.3334 14.1904C15.4072 14.0811 15.5211 14.0055 15.6504 13.9799C15.7797 13.9542 15.9139 13.9807 16.0238 14.0536C16.1337 14.1264 16.2103 14.2397 16.2371 14.3688C16.2638 14.4978 16.2385 14.6322 16.1666 14.7428C15.3956 15.906 13.7779 16.6331 12 16.6331C10.2225 16.6331 8.60438 15.9056 7.83337 14.7431C7.79701 14.6884 7.77179 14.627 7.75916 14.5626C7.74653 14.4981 7.74673 14.4318 7.75976 14.3674C7.77278 14.303 7.79838 14.2418 7.83507 14.1873C7.87177 14.1328 7.91885 14.086 7.97363 14.0497Z" fill="#1E1E1E"/>
<path d="M15.75 7.30012C16.026 7.30012 16.2499 7.524 16.2499 7.8V8.63325C16.2499 8.76582 16.1972 8.89297 16.1035 8.98671C16.0097 9.08046 15.8826 9.13312 15.75 9.13312C15.6174 9.13312 15.4903 9.08046 15.3965 8.98671C15.3028 8.89297 15.2501 8.76582 15.2501 8.63325V7.8C15.2501 7.524 15.474 7.30012 15.75 7.30012Z" fill="#1E1E1E"/>
<path fill-rule="evenodd" clip-rule="evenodd" d="M4.43946 4.43946C4.72077 4.15816 5.1023 4.00012 5.50012 4.00012H7.5C7.63262 4.00012 7.75982 3.94744 7.8536 3.85366C7.94738 3.75988 8.00006 3.63269 8.00006 3.50006C8.00006 3.36744 7.94738 3.24024 7.8536 3.14647C7.75982 3.05269 7.63262 3 7.5 3H5.50012C4.83705 3 4.20113 3.26341 3.73227 3.73227C3.26341 4.20113 3 4.83705 3 5.50012V7.5C3 7.63262 3.05269 7.75982 3.14647 7.8536C3.24024 7.94738 3.36744 8.00006 3.50006 8.00006C3.63269 8.00006 3.75988 7.94738 3.85366 7.8536C3.94744 7.75982 4.00012 7.63262 4.00012 7.5V5.50012C4.00012 5.1023 4.15816 4.72077 4.43946 4.43946ZM4.43946 19.5605C4.72077 19.8418 5.1023 19.9999 5.50012 19.9999H7.5C7.63262 19.9999 7.75982 20.0526 7.8536 20.1463C7.94738 20.2401 8.00006 20.3673 8.00006 20.4999C8.00006 20.6326 7.94738 20.7598 7.8536 20.8535C7.75982 20.9473 7.63262 21 7.5 21H5.50012C5.1718 21 4.8467 20.9353 4.54337 20.8097C4.24004 20.684 3.96443 20.4999 3.73227 20.2677C3.50011 20.0356 3.31595 19.76 3.19031 19.4566C3.06467 19.1533 3 18.8282 3 18.4999V16.5C3 16.3674 3.05269 16.2402 3.14647 16.1464C3.24024 16.0526 3.36744 15.9999 3.50006 15.9999C3.63269 15.9999 3.75988 16.0526 3.85366 16.1464C3.94744 16.2402 4.00012 16.3674 4.00012 16.5V18.4999C4.00012 18.8977 4.15816 19.2792 4.43946 19.5605ZM19.5605 4.43946C19.2792 4.15816 18.8977 4.00012 18.4999 4.00012H16.5C16.3674 4.00012 16.2402 3.94744 16.1464 3.85366C16.0526 3.75988 15.9999 3.63269 15.9999 3.50006C15.9999 3.36744 16.0526 3.24024 16.1464 3.14647C16.2402 3.05269 16.3674 3 16.5 3H18.4999C18.8282 3 19.1533 3.06467 19.4566 3.19031C19.76 3.31595 20.0356 3.50011 20.2677 3.73227C20.4999 3.96443 20.684 4.24004 20.8097 4.54337C20.9353 4.8467 21 5.1718 21 5.50012V7.5C21 7.63262 20.9473 7.75982 20.8535 7.8536C20.7598 7.94738 20.6326 8.00006 20.4999 8.00006C20.3673 8.00006 20.2401 7.94738 20.1463 7.8536C20.0526 7.75982 19.9999 7.63262 19.9999 7.5V5.50012C19.9999 5.1023 19.8418 4.72077 19.5605 4.43946ZM19.5605 19.5605C19.2792 19.8418 18.8977 19.9999 18.4999 19.9999H16.5C16.3674 19.9999 16.2402 20.0526 16.1464 20.1463C16.0526 20.2401 15.9999 20.3673 15.9999 20.4999C15.9999 20.6326 16.0526 20.7598 16.1464 20.8535C16.2402 20.9473 16.3674 21 16.5 21H18.4999C18.8282 21 19.1533 20.9353 19.4566 20.8097C19.76 20.684 20.0356 20.4999 20.2677 20.2677C20.4999 20.0356 20.684 19.76 20.8097 19.4566C20.9353 19.1533 21 18.8282 21 18.4999V16.5C21 16.3674 20.9473 16.2402 20.8535 16.1464C20.7598 16.0526 20.6326 15.9999 20.4999 15.9999C20.3673 15.9999 20.2401 16.0526 20.1463 16.1464C20.0526 16.2402 19.9999 16.3674 19.9999 16.5V18.4999C19.9999 18.8977 19.8418 19.2792 19.5605 19.5605ZM12.9165 9.4665C12.9165 9.1905 12.6926 8.96662 12.4166 8.96662C12.1406 8.96662 11.9167 9.1905 11.9167 9.4665V11.8001C11.9167 12.0761 11.6929 12.3 11.4165 12.3H11.1667C11.0341 12.3 10.9069 12.3527 10.8132 12.4465C10.7194 12.5402 10.6667 12.6674 10.6667 12.8001C10.6667 12.9327 10.7194 13.0599 10.8132 13.1537C10.9069 13.2474 11.0341 13.3001 11.1667 13.3001H11.4165C11.6135 13.3001 11.8085 13.2613 11.9905 13.1859C12.1725 13.1106 12.3379 13.0001 12.4772 12.8608C12.6164 12.7215 12.7269 12.5561 12.8023 12.3742C12.8777 12.1922 12.9165 11.9971 12.9165 11.8001V9.4665Z" fill="#1E1E1E"/>
<path d="M8.25 7.30012C8.526 7.30012 8.74988 7.524 8.74988 7.8V8.63325C8.74988 8.76582 8.69721 8.89297 8.60347 8.98671C8.50972 9.08046 8.38258 9.13312 8.25 9.13312C8.11742 9.13312 7.99028 9.08046 7.89653 8.98671C7.80279 8.89297 7.75012 8.76582 7.75012 8.63325V7.8C7.75012 7.524 7.974 7.30012 8.25 7.30012Z" fill="#1E1E1E"/>
</svg>
