<svg width="24" height="24" viewBox="0 0 24 24" fill="none" xmlns="http://www.w3.org/2000/svg">
<g clip-path="url(#clip0_2849_93)">
<path d="M21.9975 8.19375H13.9537V5.77875C13.9537 4.67625 13.0575 3.77625 11.9513 3.77625L2.0025 3.7725C0.9 3.76875 0 4.66875 0 5.77125V12.1425C0 13.245 0.89625 14.145 2.0025 14.145H2.37375V15.27C2.37375 15.4688 2.4825 15.6488 2.65875 15.7425C2.74498 15.7888 2.84214 15.8107 2.93988 15.8061C3.03762 15.8015 3.13227 15.7704 3.21375 15.7163L5.565 14.145H10.05V16.5638C10.05 17.6663 10.9462 18.5625 12.0487 18.5625H18.4387L20.79 20.1375C20.8715 20.1917 20.9661 20.2227 21.0639 20.2274C21.1616 20.232 21.2588 20.21 21.345 20.1638C21.5212 20.07 21.63 19.89 21.63 19.6913V18.5663H22.0012C23.1075 18.5663 24.0037 17.67 24.0075 16.5675V10.2C24 9.09375 23.1 8.19375 21.9975 8.19375ZM10.6012 13.0688H5.39625C5.29125 13.0688 5.18625 13.0988 5.09625 13.1588L3.44625 14.2613V13.605C3.44625 13.3088 3.20625 13.0688 2.91 13.0688H2.0025C1.4925 13.0688 1.07625 12.6525 1.07625 12.1425V5.77125C1.07625 5.26125 1.4925 4.845 2.0025 4.845L11.9513 4.84875C12.4613 4.84875 12.8775 5.265 12.8775 5.775V12.1425C12.8775 12.6525 12.4613 13.0688 11.9513 13.0688H10.6012ZM22.9237 16.5675C22.9237 17.0775 22.5075 17.4938 21.9938 17.4938H21.0863C20.79 17.4938 20.55 17.7338 20.55 18.03V18.6863L18.9 17.58C18.81 17.52 18.7087 17.49 18.6 17.49H12.045C11.535 17.49 11.1187 17.0738 11.1187 16.5638V14.145H11.9475C13.05 14.145 13.95 13.2488 13.95 12.1425V9.2625H21.9938C22.2404 9.2625 22.477 9.36049 22.6514 9.53489C22.8258 9.7093 22.9237 9.94585 22.9237 10.1925V16.5675Z" fill="#1E1E1E"/>
<path d="M8.75997 10.485C8.73612 10.4641 8.70795 10.4487 8.67747 10.44C8.64372 10.4288 8.59497 10.41 8.53497 10.3838C8.47497 10.3575 8.40372 10.32 8.31372 10.2675C8.22747 10.215 8.12622 10.14 8.01372 10.0425C8.08872 9.9675 8.15622 9.88125 8.21247 9.78375C8.27247 9.68625 8.32122 9.5775 8.35872 9.4575C8.39997 9.3375 8.42997 9.21 8.44872 9.07125C8.47122 8.9325 8.47872 8.7825 8.47872 8.625C8.47872 8.3175 8.44122 8.055 8.36997 7.83C8.29872 7.605 8.19372 7.42125 8.05122 7.275C7.91247 7.12875 7.73997 7.02 7.53747 6.94875C7.33497 6.8775 7.09872 6.84375 6.83622 6.84375C6.55497 6.84375 6.30747 6.885 6.09747 6.97125C5.88372 7.0575 5.70747 7.18125 5.56122 7.33875C5.41872 7.5 5.30997 7.69125 5.23497 7.92C5.16372 8.14875 5.12622 8.4075 5.12622 8.6925C5.12622 9.0075 5.15997 9.28125 5.22747 9.51C5.29497 9.73875 5.39997 9.92625 5.53497 10.0763C5.66997 10.2225 5.84247 10.3313 6.04872 10.4025C6.25497 10.4738 6.49497 10.5075 6.76872 10.5075C6.91497 10.5075 7.04622 10.4925 7.16622 10.4663C7.28622 10.4363 7.38747 10.4062 7.46997 10.365C7.57122 10.4813 7.67997 10.5825 7.79622 10.6688C7.91247 10.7588 8.02872 10.8338 8.14122 10.8938C8.25372 10.9538 8.35872 11.0025 8.45622 11.0363C8.55372 11.07 8.63247 11.085 8.69247 11.085C8.70747 11.085 8.72247 11.0813 8.73372 11.0738C8.74497 11.0663 8.75997 11.055 8.76747 11.0325C8.78043 11.0026 8.78926 10.971 8.79372 10.9388C8.80122 10.8975 8.80497 10.845 8.80497 10.7813C8.80497 10.6988 8.80122 10.635 8.78997 10.59C8.77872 10.545 8.78247 10.5037 8.75997 10.485ZM7.68372 9.14625C7.65372 9.29625 7.60122 9.43125 7.52997 9.54375C7.45872 9.65625 7.36122 9.74625 7.24122 9.81C7.12122 9.8775 6.97497 9.9075 6.79872 9.9075C6.62247 9.9075 6.47622 9.8775 6.35997 9.82125C6.24372 9.765 6.14997 9.67875 6.08247 9.57C6.00805 9.44841 5.95835 9.31333 5.93622 9.1725C5.90456 8.99933 5.88949 8.82353 5.89122 8.6475C5.89122 8.4825 5.90622 8.32875 5.93622 8.17875C5.96622 8.02875 6.01872 7.90125 6.08997 7.78875C6.16122 7.67625 6.25872 7.59 6.37872 7.5225C6.49872 7.455 6.64497 7.425 6.82122 7.425C6.99747 7.425 7.14372 7.455 7.25997 7.515C7.37622 7.575 7.46997 7.6575 7.54122 7.76625C7.61247 7.875 7.66122 8.00625 7.69122 8.15625C7.72122 8.30625 7.73622 8.475 7.73622 8.65875C7.73247 8.83125 7.71372 8.9925 7.68372 9.14625ZM17.5425 11.6175C17.5341 11.5865 17.5201 11.5573 17.5012 11.5313C17.4862 11.5088 17.4562 11.4938 17.4187 11.4825C17.3674 11.4688 17.3143 11.4625 17.2612 11.4638C17.1937 11.46 17.1037 11.46 16.9875 11.46C16.89 11.46 16.8112 11.46 16.7512 11.4638C16.6912 11.4675 16.6462 11.475 16.6125 11.4825C16.5787 11.4938 16.5525 11.5088 16.5375 11.5275C16.5225 11.5463 16.5075 11.5725 16.4962 11.6063L15.3412 14.9288C15.3187 14.9963 15.3037 15.0488 15.2962 15.09C15.2887 15.1313 15.2962 15.1613 15.315 15.1838C15.3337 15.2063 15.3675 15.2213 15.42 15.225C15.4687 15.2325 15.54 15.2325 15.63 15.2325C15.7125 15.2325 15.78 15.2288 15.8325 15.225C15.885 15.2213 15.9225 15.2138 15.9525 15.2025C15.9787 15.1913 16.0012 15.1762 16.0125 15.1575C16.0254 15.1364 16.0355 15.1137 16.0425 15.09L16.2787 14.3588H17.685L17.9362 15.1125C17.9437 15.1388 17.955 15.1575 17.9662 15.1725C17.9775 15.1875 17.9962 15.1988 18.0262 15.21C18.0562 15.2175 18.0975 15.225 18.1537 15.2288C18.21 15.2325 18.285 15.2325 18.3825 15.2325C18.4762 15.2325 18.5512 15.2288 18.6037 15.225C18.6562 15.2213 18.6937 15.2063 18.7162 15.1875C18.7387 15.1688 18.7462 15.1388 18.7387 15.0975C18.7288 15.0412 18.7137 14.986 18.6937 14.9325L17.5425 11.6175ZM16.4512 13.7813L16.98 12.1912H16.9837L17.5125 13.7813H16.4512Z" fill="#1E1E1E"/>
</g>
<defs>
<clipPath id="clip0_2849_93">
<rect width="24" height="24" fill="white"/>
</clipPath>
</defs>
</svg>
