<svg width="25" height="25" viewBox="0 0 25 25" fill="none" xmlns="http://www.w3.org/2000/svg">
<path d="M22.1002 5.42779C21.9847 5.16109 21.7934 4.9342 21.5501 4.77535C21.3067 4.61649 21.022 4.53269 20.7314 4.53436H4.23142C3.94111 4.53493 3.6572 4.61973 3.41413 4.77849C3.17107 4.93724 2.97929 5.16312 2.86208 5.42872C2.74486 5.69432 2.70724 5.98822 2.75377 6.27478C2.8003 6.56135 2.929 6.82825 3.12423 7.04311L3.13173 7.05154L9.48142 13.8315V21.0344C9.48136 21.3058 9.55497 21.5722 9.69442 21.8052C9.83386 22.0381 10.0339 22.2288 10.2732 22.357C10.5125 22.4852 10.7822 22.546 11.0533 22.533C11.3245 22.52 11.587 22.4336 11.813 22.2831L14.813 20.2825C15.0186 20.1455 15.1873 19.9598 15.3039 19.742C15.4205 19.5241 15.4815 19.2808 15.4814 19.0337V13.8315L21.832 7.05154L21.8395 7.04311C22.0368 6.82923 22.1668 6.56197 22.2131 6.2747C22.2595 5.98743 22.2202 5.69287 22.1002 5.42779ZM14.1858 13.0262C14.0561 13.1638 13.9831 13.3453 13.9814 13.5344V19.0337L10.9814 21.0344V13.5344C10.9815 13.3439 10.9091 13.1606 10.7789 13.0215L4.23142 6.03436H20.7314L14.1858 13.0262Z" fill="#5A5A5A"/>
</svg>
