<svg width="28" height="28" viewBox="0 0 28 28" fill="none" xmlns="http://www.w3.org/2000/svg">
<path d="M24.5 23.3334C24.5 23.6428 24.3771 23.9396 24.1583 24.1583C23.9395 24.3771 23.6428 24.5001 23.3333 24.5001H4.66667C4.35725 24.5001 4.0605 24.3771 3.84171 24.1583C3.62292 23.9396 3.5 23.6428 3.5 23.3334V10.8664C3.49993 10.6902 3.53978 10.5162 3.61657 10.3576C3.69335 10.199 3.80507 10.0598 3.94333 9.95056L13.2767 2.58772C13.4826 2.42496 13.7375 2.33643 14 2.33643C14.2625 2.33643 14.5174 2.42496 14.7233 2.58772L24.0567 9.94939C24.1951 10.0588 24.3069 10.1981 24.3837 10.357C24.4605 10.5158 24.5002 10.69 24.5 10.8664V23.3334Z" fill="#D6D9DF"/>
</svg>
