<svg width="24" height="24" viewBox="0 0 24 24" fill="none" xmlns="http://www.w3.org/2000/svg">
<g clip-path="url(#clip0_2167_756)">
<path d="M8.8535 16.1096C8.8429 16.0505 8.81727 15.9951 8.77906 15.9487L6.85812 11.7971C6.82994 11.7362 6.78493 11.6846 6.72839 11.6485C6.67186 11.6124 6.60616 11.5932 6.53907 11.5932C6.47197 11.5932 6.40628 11.6124 6.34974 11.6485C6.29321 11.6846 6.24819 11.7362 6.22001 11.7971L4.29912 15.9487C4.26092 15.9951 4.23528 16.0505 4.22469 16.1096L3.51162 17.6508C3.47316 17.7353 3.46969 17.8316 3.50198 17.9187C3.53427 18.0057 3.59969 18.0765 3.68397 18.1155C3.76824 18.1545 3.86452 18.1585 3.95178 18.1268C4.03905 18.095 4.11021 18.0301 4.14973 17.946L4.80767 16.524H8.27047L8.92845 17.946C8.96797 18.0301 9.03913 18.095 9.1264 18.1268C9.21366 18.1585 9.30994 18.1545 9.39422 18.1155C9.47849 18.0765 9.54391 18.0057 9.5762 17.9187C9.60849 17.8316 9.60503 17.7353 9.56656 17.6508L8.8535 16.1096ZM5.13303 15.8209L6.53909 12.782L7.94515 15.8209H5.13303ZM14.96 4.19896H15.6795C15.7728 4.19896 15.8622 4.16192 15.9281 4.09599C15.9941 4.03006 16.0311 3.94064 16.0311 3.8474C16.0311 3.75416 15.9941 3.66474 15.9281 3.59881C15.8622 3.53288 15.7728 3.49584 15.6795 3.49584H13.5375C13.4442 3.49584 13.3548 3.53288 13.2889 3.59881C13.223 3.66474 13.1859 3.75416 13.1859 3.8474C13.1859 3.94064 13.223 4.03006 13.2889 4.09599C13.3548 4.16192 13.4442 4.19896 13.5375 4.19896H14.2569V5.78395H12.473C12.6148 5.55768 12.6934 5.29756 12.7006 5.03064C12.7078 4.76371 12.6434 4.49973 12.514 4.26616C12.3846 4.03258 12.195 3.83793 11.9649 3.70246C11.7348 3.56699 11.4726 3.49564 11.2055 3.49584H9.69153C9.59829 3.49584 9.50887 3.53288 9.44294 3.59881C9.37701 3.66474 9.33997 3.75416 9.33997 3.8474C9.33997 3.94064 9.37701 4.03006 9.44294 4.09599C9.50887 4.16192 9.59829 4.19896 9.69153 4.19896H11.2055C11.4157 4.19896 11.6173 4.28246 11.7659 4.43108C11.9145 4.5797 11.998 4.78127 11.998 4.99146C11.998 5.20164 11.9145 5.40321 11.7659 5.55183C11.6173 5.70045 11.4157 5.78395 11.2055 5.78395H9.69153C9.59829 5.78395 9.50887 5.82099 9.44294 5.88692C9.37701 5.95285 9.33997 6.04227 9.33997 6.13551C9.33997 6.22875 9.37701 6.31817 9.44294 6.3841C9.50887 6.45003 9.59829 6.48707 9.69153 6.48707H11.1801C11.6215 6.48707 11.9894 6.83413 12.0005 7.26074C12.0033 7.36687 11.9848 7.47248 11.9462 7.57135C11.9075 7.67022 11.8494 7.76034 11.7754 7.8364C11.7013 7.91245 11.6128 7.97291 11.515 8.01419C11.4172 8.05547 11.3121 8.07674 11.2059 8.07674C11.195 8.07674 11.184 8.07726 11.1731 8.07829C10.788 8.11443 10.3997 8.06344 10.037 7.9291C9.67428 7.79475 9.34644 7.58051 9.0778 7.30223C9.04585 7.2685 9.00753 7.24144 8.96507 7.22261C8.9226 7.20378 8.87682 7.19356 8.83038 7.19252C8.78394 7.19149 8.73775 7.19967 8.69449 7.2166C8.65123 7.23352 8.61175 7.25885 8.57833 7.29112C8.54492 7.32339 8.51823 7.36197 8.49981 7.40461C8.4814 7.44726 8.47161 7.49313 8.47103 7.53959C8.47045 7.58604 8.47907 7.63214 8.49642 7.67524C8.51376 7.71833 8.53947 7.75757 8.57206 7.79067C8.87844 8.10807 9.24571 8.36038 9.6519 8.53251C10.0581 8.70463 10.4948 8.79302 10.936 8.79239C11.0318 8.79239 11.1276 8.78821 11.2229 8.77978C11.4215 8.77753 11.6176 8.73581 11.7999 8.65705C11.9823 8.5783 12.1471 8.46407 12.2849 8.32103C12.4226 8.17798 12.5306 8.00897 12.6024 7.82382C12.6743 7.63867 12.7086 7.44109 12.7033 7.24256C12.6961 6.97393 12.6149 6.7125 12.4686 6.48707H14.2569V8.42357C14.2569 8.51681 14.294 8.60623 14.3599 8.67216C14.4258 8.7381 14.5152 8.77514 14.6085 8.77514C14.7017 8.77514 14.7911 8.7381 14.8571 8.67216C14.923 8.60623 14.96 8.51681 14.96 8.42357L14.96 4.19896ZM18.8649 12.1232C17.8427 12.1224 16.8436 12.4273 15.9961 12.9989V12.4187C16.9313 11.803 17.6983 10.964 18.228 9.97756C18.7577 8.99111 19.0333 7.88825 19.0299 6.7686C19.0299 3.03112 15.9894 -0.00952148 12.2522 -0.00952148C8.51501 -0.00952148 5.47456 3.03112 5.47456 6.7686C5.47347 7.48991 5.58804 8.20672 5.81389 8.89176C2.5483 9.25373 2.92383e-05 12.0299 2.92383e-05 15.3904C-0.00320603 16.4694 0.262098 17.5323 0.772033 18.4833C1.28197 19.4342 2.02051 20.2433 2.92109 20.8377V23.6256C2.92109 23.6877 2.93755 23.7487 2.96879 23.8024C3.00004 23.8561 3.04496 23.9006 3.09898 23.9313C3.153 23.9619 3.21419 23.9778 3.27632 23.9771C3.33844 23.9765 3.39929 23.9594 3.45265 23.9276L6.8149 21.9236C7.75651 21.8836 8.67836 21.6407 9.51733 21.2114C10.3563 20.782 11.0926 20.1764 11.6757 19.4361C12.2589 18.6957 12.6751 17.8381 12.896 16.9219C13.1169 16.0057 13.1371 15.0525 12.9553 14.1278L14.2901 14.9231C13.8997 15.6883 13.7074 16.5391 13.7308 17.3978C13.7542 18.2564 13.9926 19.0955 14.4242 19.8383C14.8558 20.581 15.4667 21.2036 16.2011 21.6491C16.9355 22.0946 17.77 22.3489 18.6281 22.3885L21.21 23.9278C21.2634 23.9596 21.3242 23.9767 21.3864 23.9773C21.4485 23.978 21.5097 23.9621 21.5637 23.9315C21.6177 23.9008 21.6626 23.8563 21.6939 23.8026C21.7251 23.7489 21.7416 23.6879 21.7416 23.6258V21.5128C22.6522 20.897 23.3411 20.0052 23.7071 18.9686C24.0731 17.9321 24.0968 16.8054 23.7748 15.7544C23.4528 14.7033 22.802 13.7833 21.9182 13.1297C21.0344 12.476 19.9641 12.1233 18.8649 12.1232ZM10.7192 19.4628C9.66229 20.5526 8.22043 21.1848 6.70283 21.2239C6.64275 21.2255 6.58411 21.2426 6.53248 21.2733L3.62422 23.0068V20.6459C3.62422 20.5861 3.60901 20.5274 3.58002 20.4752C3.55103 20.423 3.50921 20.379 3.45851 20.3474C2.43233 19.7098 1.62931 18.7695 1.16024 17.6561C0.691181 16.5427 0.579193 15.3112 0.839732 14.1315C1.10027 12.9518 1.7205 11.882 2.61483 11.0698C3.50917 10.2575 4.63354 9.7428 5.83281 9.59667C7.03209 9.45055 8.24715 9.6802 9.31037 10.2539C10.3736 10.8277 11.2325 11.7172 11.7687 12.7999C12.3049 13.8825 12.4919 15.1049 12.3039 16.2983C12.1159 17.4917 11.5622 18.5974 10.7192 19.4628ZM12.6813 13.1459C12.2201 11.8885 11.3846 10.8028 10.2873 10.0349C9.18999 9.26704 7.88371 8.85396 6.54444 8.85135C6.30067 8.18405 6.17651 7.47899 6.17769 6.76856C6.17769 3.41878 8.90272 0.693557 12.2522 0.693557C15.6017 0.693557 18.3267 3.41878 18.3267 6.76856C18.3297 7.80206 18.0676 8.81906 17.5655 9.72239C17.0634 10.6257 16.338 11.3852 15.4587 11.9283C15.408 11.9598 15.3662 12.0038 15.3372 12.056C15.3082 12.1082 15.293 12.167 15.293 12.2267V14.7022L14.9449 14.4947L14.9442 14.4942L14.9434 14.4937L12.6813 13.1459ZM21.2042 21.0234C21.1535 21.055 21.1117 21.099 21.0827 21.1512C21.0537 21.2034 21.0385 21.2622 21.0385 21.3219V23.0069L18.9108 21.7385C18.8592 21.7077 18.8005 21.6907 18.7405 21.6891C17.9965 21.6681 17.2698 21.4602 16.6274 21.0845C15.985 20.7088 15.4475 20.1774 15.0644 19.5393C14.6814 18.9012 14.4652 18.1769 14.4358 17.4333C14.4064 16.6896 14.5646 15.9505 14.896 15.2842L15.4646 15.623C15.518 15.6548 15.5788 15.6719 15.6409 15.6725C15.7031 15.6731 15.7642 15.6573 15.8182 15.6266C15.8723 15.5959 15.9172 15.5515 15.9484 15.4978C15.9797 15.4441 15.9961 15.3831 15.9961 15.3209V13.8808C16.4608 13.4861 17.0019 13.1916 17.5856 13.0157C18.1693 12.8397 18.783 12.786 19.3884 12.858C19.9937 12.93 20.5777 13.1261 21.1039 13.4341C21.63 13.742 22.0869 14.1552 22.4461 14.6478C22.8053 15.1404 23.059 15.7018 23.1913 16.2969C23.3237 16.892 23.3318 17.508 23.2152 18.1064C23.0987 18.7048 22.8599 19.2727 22.5139 19.7746C22.1679 20.2765 21.722 20.7017 21.2042 21.0234ZM21.0391 15.3373H20.3084C20.2812 15.3341 20.2537 15.3341 20.2265 15.3373H19.2163V14.7466C19.2163 14.6533 19.1793 14.5639 19.1133 14.498C19.0474 14.4321 18.958 14.395 18.8647 14.395C18.7715 14.395 18.6821 14.4321 18.6161 14.498C18.5502 14.5639 18.5132 14.6533 18.5132 14.7466V15.3373H16.9241C16.8309 15.3373 16.7414 15.3743 16.6755 15.4403C16.6096 15.5062 16.5725 15.5956 16.5725 15.6889C16.5725 15.7821 16.6096 15.8715 16.6755 15.9375C16.7414 16.0034 16.8309 16.0404 16.9241 16.0404H19.7302C19.4293 16.6556 19.0149 17.2085 18.5088 17.6698C18.2775 17.4334 18.0739 17.1714 17.9019 16.8889C17.8531 16.8098 17.7751 16.7533 17.6848 16.7316C17.5945 16.7099 17.4992 16.7248 17.4199 16.7731C17.3406 16.8214 17.2835 16.8991 17.2613 16.9892C17.2391 17.0794 17.2534 17.1747 17.3012 17.2544C17.4879 17.5615 17.7068 17.8478 17.9541 18.1086C17.6268 18.3322 17.2757 18.5187 16.907 18.6645C16.8638 18.6813 16.8243 18.7064 16.7908 18.7385C16.7574 18.7706 16.7306 18.8091 16.712 18.8516C16.6935 18.8941 16.6835 18.9398 16.6827 18.9862C16.6819 19.0326 16.6903 19.0786 16.7074 19.1217C16.7245 19.1649 16.7499 19.2042 16.7822 19.2374C16.8146 19.2707 16.8532 19.2972 16.8958 19.3154C16.9384 19.3337 16.9843 19.3433 17.0306 19.3438C17.077 19.3443 17.123 19.3356 17.166 19.3182C17.6344 19.1327 18.0776 18.8892 18.4853 18.5933C19.0064 19.006 19.6039 19.3114 20.2436 19.4921C20.3331 19.5171 20.4288 19.5055 20.5098 19.4601C20.5909 19.4146 20.6506 19.339 20.6761 19.2496C20.7015 19.1602 20.6905 19.0644 20.6454 18.9831C20.6004 18.9019 20.5251 18.8417 20.4358 18.8158C19.9345 18.6742 19.4626 18.4435 19.0429 18.1348C19.6701 17.5457 20.1678 16.8324 20.5042 16.0404H21.0391C21.1324 16.0404 21.2218 16.0034 21.2877 15.9375C21.3536 15.8715 21.3907 15.7821 21.3907 15.6889C21.3907 15.5956 21.3536 15.5062 21.2877 15.4403C21.2218 15.3743 21.1324 15.3373 21.0391 15.3373Z" fill="#1E1E1E"/>
</g>
<defs>
<clipPath id="clip0_2167_756">
<rect width="24" height="24" fill="white"/>
</clipPath>
</defs>
</svg>
