<svg width="28" height="28" viewBox="0 0 28 28" fill="none" xmlns="http://www.w3.org/2000/svg">
<path d="M22.1668 25.6668H5.8335C4.90524 25.6668 4.015 25.2981 3.35862 24.6417C2.70225 23.9853 2.3335 23.0951 2.3335 22.1668V3.50016C2.3335 3.19074 2.45641 2.894 2.6752 2.6752C2.894 2.45641 3.19074 2.3335 3.50016 2.3335H19.8335C20.1429 2.3335 20.4397 2.45641 20.6585 2.6752C20.8772 2.894 21.0002 3.19074 21.0002 3.50016V17.5002H25.6668V22.1668C25.6668 23.0951 25.2981 23.9853 24.6417 24.6417C23.9853 25.2981 23.0951 25.6668 22.1668 25.6668ZM21.0002 19.8335V22.1668C21.0002 22.4762 21.1231 22.773 21.3419 22.9918C21.5607 23.2106 21.8574 23.3335 22.1668 23.3335C22.4762 23.3335 22.773 23.2106 22.9918 22.9918C23.2106 22.773 23.3335 22.4762 23.3335 22.1668V19.8335H21.0002ZM7.00016 8.16683V10.5002H16.3335V8.16683H7.00016ZM7.00016 12.8335V15.1668H16.3335V12.8335H7.00016ZM7.00016 17.5002V19.8335H12.8335V17.5002H7.00016Z" fill="#D6D9DF"/>
</svg>
