<svg width="29" height="28" viewBox="0 0 29 28" fill="none" xmlns="http://www.w3.org/2000/svg">
<path d="M27.3334 11.3332V21.9998C27.3334 22.3535 27.1982 22.6926 26.9575 22.9426C26.7169 23.1927 26.3904 23.3332 26.0501 23.3332H2.95008C2.60972 23.3332 2.2833 23.1927 2.04263 22.9426C1.80196 22.6926 1.66675 22.3535 1.66675 21.9998V11.3332H27.3334ZM27.3334 8.6665H1.66675V5.99984C1.66675 5.64622 1.80196 5.30708 2.04263 5.05703C2.2833 4.80698 2.60972 4.6665 2.95008 4.6665H26.0501C26.3904 4.6665 26.7169 4.80698 26.9575 5.05703C27.1982 5.30708 27.3334 5.64622 27.3334 5.99984V8.6665ZM18.3501 16.6665V19.3332H23.4834V16.6665H18.3501Z" fill="#D6D9DF"/>
</svg>
