<svg width="26" height="26" viewBox="0 0 26 26" fill="none" xmlns="http://www.w3.org/2000/svg">
<g clip-path="url(#clip0_2116_46)">
<path d="M20.8323 16.5316L18.0806 16.2174C17.4198 16.1416 16.7698 16.3691 16.304 16.8349L14.3106 18.8282C11.2448 17.2682 8.73147 14.7657 7.17147 11.6891L9.17563 9.68491C9.64147 9.21908 9.86897 8.56908 9.79313 7.90824L9.47897 5.17824C9.34897 4.08408 8.42813 3.26074 7.32313 3.26074H5.44897C4.2248 3.26074 3.20647 4.27908 3.2823 5.50324C3.85647 14.7549 11.2556 22.1432 20.4965 22.7174C21.7206 22.7932 22.739 21.7749 22.739 20.5507V18.6766C22.7498 17.5824 21.9265 16.6616 20.8323 16.5316Z" fill="#ADB4C0"/>
</g>
<defs>
<clipPath id="clip0_2116_46">
<rect width="26" height="26" fill="white"/>
</clipPath>
</defs>
</svg>
