<svg width="24" height="24" viewBox="0 0 24 24" fill="none" xmlns="http://www.w3.org/2000/svg">
<g clip-path="url(#clip0_82_1018)">
<path d="M11.9995 20.1585C16.5054 20.1585 20.1582 16.5058 20.1582 11.9998C20.1582 7.49393 16.5054 3.84116 11.9995 3.84116C7.49359 3.84116 3.84082 7.49393 3.84082 11.9998C3.84082 16.5058 7.49359 20.1585 11.9995 20.1585Z" stroke="#4C4C4C" stroke-width="1.06727" stroke-linecap="square"/>
<path d="M11.9996 14.0395C13.1261 14.0395 14.0393 13.1263 14.0393 11.9999C14.0393 10.8734 13.1261 9.96021 11.9996 9.96021C10.8731 9.96021 9.95996 10.8734 9.95996 11.9999C9.95996 13.1263 10.8731 14.0395 11.9996 14.0395Z" fill="#4C4C4C"/>
<path d="M11.9996 16.5248C14.4986 16.5248 16.5245 14.4989 16.5245 11.9998C16.5245 9.50078 14.4986 7.47488 11.9996 7.47488C9.50051 7.47488 7.47461 9.50078 7.47461 11.9998C7.47461 14.4989 9.50051 16.5248 11.9996 16.5248Z" fill="#4C4C4C"/>
<path d="M11.9999 0.376892V3.58317M11.9999 20.4662V23.6228M23.6229 11.9999H20.3806M3.79458 11.9999H0.376953" stroke="#4C4C4C" stroke-width="0.933856" stroke-linecap="round"/>
</g>
<defs>
<clipPath id="clip0_82_1018">
<rect width="24" height="24" fill="white"/>
</clipPath>
</defs>
</svg>
