<svg width="24" height="24" viewBox="0 0 24 24" fill="none" xmlns="http://www.w3.org/2000/svg">
<path d="M19.8732 3.97908C17.0089 3.70318 14.81 2.64399 13.1507 0.740911C12.5458 0.0478644 11.4555 0.0464113 10.8493 0.740911C9.18998 2.64399 6.99107 3.70318 4.12678 3.97908C3.3194 4.05708 2.71045 4.71872 2.71045 5.51818L2.7119 13.4617C3.10303 17.6966 5.84043 19.5796 8.25539 21.2407C9.23568 21.9151 10.162 22.5521 10.8857 23.3034C11.4975 23.9383 12.5026 23.9379 13.1148 23.3034C13.8381 22.5521 14.7644 21.9151 15.7447 21.2407C18.1597 19.5796 20.8971 17.6966 21.2896 13.4279V5.51818C21.2895 4.71868 20.6806 4.05708 19.8732 3.97908ZM15.3277 20.6341C14.3154 21.3302 13.3595 21.9877 12.5845 22.7926C12.2732 23.1154 11.7264 23.1154 11.4158 22.7926C10.6404 21.9877 9.68461 21.3302 8.67234 20.6341C6.27932 18.9879 3.80432 17.2856 3.44667 13.4279V5.51818C3.44667 5.09991 3.7695 4.75322 4.19723 4.71207C7.25779 4.41713 9.61523 3.27652 11.4044 1.2248C11.7162 0.866958 12.2845 0.867708 12.5956 1.2248C14.3848 3.27652 16.7422 4.41713 19.8028 4.71207C20.2305 4.75322 20.5533 5.09996 20.5533 5.51818L20.5548 13.3941C20.1957 17.2856 17.7207 18.9879 15.3277 20.6341Z" fill="#1E1E1E"/>
<path d="M12.0028 6.55417C8.99502 6.55417 6.5481 8.99575 6.5481 11.9966C6.5481 15.0442 9.01494 17.4452 12.0028 17.4452C15.0137 17.4452 17.4517 15.0144 17.4517 11.9966C17.4517 8.99575 15.0073 6.55417 12.0028 6.55417ZM9.41089 15.9347C9.9606 15.0036 10.9253 14.4326 12.0028 14.4326C13.0772 14.4326 14.0401 15.0039 14.5894 15.9355C13.8295 16.4411 12.9426 16.709 12.0028 16.709C11.065 16.709 10.1763 16.4411 9.41089 15.9347ZM15.1738 15.4754C14.4846 14.3693 13.3093 13.6964 12.0028 13.6964C10.6929 13.6964 9.51552 14.3693 8.82603 15.4756C7.84386 14.5833 7.28427 13.3399 7.28427 11.9966C7.28427 9.40159 9.40086 7.29039 12.0028 7.29039C14.6014 7.29039 16.7155 9.40159 16.7155 11.9966C16.7155 13.3393 16.1564 14.5823 15.1738 15.4754Z" fill="#1E1E1E"/>
<path d="M12.0001 9.28079C11.0223 9.28079 10.2268 10.0761 10.2268 11.0539C10.2268 12.0317 11.0223 12.827 12.0001 12.827C12.9779 12.827 13.7734 12.0317 13.7734 11.0539C13.7734 10.0761 12.9779 9.28079 12.0001 9.28079ZM12.0001 12.0908C11.4282 12.0908 10.963 11.6257 10.963 11.0539C10.963 10.4821 11.4282 10.017 12.0001 10.017C12.572 10.017 13.0372 10.4821 13.0372 11.0539C13.0372 11.6257 12.572 12.0908 12.0001 12.0908Z" fill="#1E1E1E"/>
</svg>
