<svg width="32" height="32" viewBox="0 0 32 32" fill="none" xmlns="http://www.w3.org/2000/svg">
<path d="M14.5612 6.62058H7.508C7.28851 6.62058 7.07801 6.70777 6.9228 6.86297C6.7676 7.01818 6.68041 7.22868 6.68041 7.44817V14.6206C6.68041 14.8401 6.7676 15.0506 6.9228 15.2058C7.07801 15.361 7.28851 15.4482 7.508 15.4482H14.5612C14.7807 15.4482 14.9912 15.361 15.1464 15.2058C15.3016 15.0506 15.3888 14.8401 15.3888 14.6206V7.44817C15.3888 7.22868 15.3016 7.01818 15.1464 6.86297C14.9912 6.70777 14.7807 6.62058 14.5612 6.62058ZM13.7337 13.793H8.33558V8.27575H13.7337V13.793ZM12.1381 9.93092H9.93117V12.1378H12.1381V9.93092ZM3.31048 13.2413C3.60313 13.2413 3.8838 13.125 4.09074 12.9181C4.29767 12.7111 4.41393 12.4305 4.41393 12.1378V5.51713C4.41422 5.22457 4.53057 4.94407 4.73744 4.7372C4.94432 4.53033 5.22481 4.41398 5.51738 4.41368H12.1381C12.4307 4.41368 12.7114 4.29743 12.9183 4.09049C13.1253 3.88355 13.2415 3.60289 13.2415 3.31024C13.2415 3.01758 13.1253 2.73692 12.9183 2.52998C12.7114 2.32304 12.4307 2.20679 12.1381 2.20679H5.51738C4.63969 2.20766 3.7982 2.55671 3.17758 3.17733C2.55696 3.79795 2.20791 4.63944 2.20703 5.51713V12.1378C2.20703 12.4305 2.32329 12.7111 2.53022 12.9181C2.73716 13.125 3.01783 13.2413 3.31048 13.2413ZM14.5612 16.5516H7.508C7.28851 16.5516 7.07801 16.6388 6.9228 16.794C6.7676 16.9492 6.68041 17.1597 6.68041 17.3792V24.5516C6.68041 24.7711 6.7676 24.9816 6.9228 25.1368C7.07801 25.292 7.28851 25.3792 7.508 25.3792H14.5612C14.7807 25.3792 14.9912 25.292 15.1464 25.1368C15.3016 24.9816 15.3888 24.7711 15.3888 24.5516V17.3792C15.3888 17.1597 15.3016 16.9492 15.1464 16.794C14.9912 16.6388 14.7807 16.5516 14.5612 16.5516ZM13.7337 23.724H8.33558V18.2068H13.7337V23.724ZM12.1381 19.862H9.93117V22.0689H12.1381V19.862ZM12.1381 27.5861H5.51738C5.22481 27.5858 4.94432 27.4695 4.73744 27.2626C4.53057 27.0557 4.41422 26.7752 4.41393 26.4826V19.862C4.41393 19.5693 4.29767 19.2886 4.09074 19.0817C3.8838 18.8748 3.60313 18.7585 3.31048 18.7585C3.01783 18.7585 2.73716 18.8748 2.53022 19.0817C2.32329 19.2886 2.20703 19.5693 2.20703 19.862V26.4826C2.20791 27.3603 2.55696 28.2018 3.17758 28.8224C3.7982 29.4431 4.63969 29.7921 5.51738 29.793H12.1381C12.4307 29.793 12.7114 29.6767 12.9183 29.4698C13.1253 29.2629 13.2415 28.9822 13.2415 28.6895C13.2415 28.3969 13.1253 28.1162 12.9183 27.9093C12.7114 27.7024 12.4307 27.5861 12.1381 27.5861ZM28.6898 18.7585C28.3971 18.7585 28.1165 18.8748 27.9095 19.0817C27.7026 19.2886 27.5863 19.5693 27.5863 19.862V26.4826C27.5861 26.7752 27.4697 27.0557 27.2628 27.2626C27.056 27.4695 26.7755 27.5858 26.4829 27.5861H19.8622C19.5696 27.5861 19.2889 27.7024 19.0819 27.9093C18.875 28.1162 18.7588 28.3969 18.7588 28.6895C18.7588 28.9822 18.875 29.2629 19.0819 29.4698C19.2889 29.6767 19.5696 29.793 19.8622 29.793H26.4829C27.3606 29.7921 28.2021 29.4431 28.8227 28.8224C29.4433 28.2018 29.7924 27.3603 29.7932 26.4826V19.862C29.7932 19.5693 29.677 19.2886 29.47 19.0817C29.2631 18.8748 28.9824 18.7585 28.6898 18.7585ZM19.3105 22.6206H17.1036V24.8275H19.3105V22.6206ZM17.1036 19.3036H19.3105V17.0967H17.1036V19.3036ZM26.4829 2.20679H19.8622C19.5696 2.20679 19.2889 2.32304 19.0819 2.52998C18.875 2.73692 18.7588 3.01758 18.7588 3.31024C18.7588 3.60289 18.875 3.88355 19.0819 4.09049C19.2889 4.29743 19.5696 4.41368 19.8622 4.41368H26.4829C26.7755 4.41398 27.056 4.53033 27.2628 4.7372C27.4697 4.94407 27.5861 5.22457 27.5863 5.51713V12.1378C27.5863 12.4305 27.7026 12.7111 27.9095 12.9181C28.1165 13.125 28.3971 13.2413 28.6898 13.2413C28.9824 13.2413 29.2631 13.125 29.47 12.9181C29.677 12.7111 29.7932 12.4305 29.7932 12.1378V5.51713C29.7924 4.63944 29.4433 3.79795 28.8227 3.17733C28.2021 2.55671 27.3606 2.20766 26.4829 2.20679ZM19.8622 12.1378H22.0691V9.93092H19.8622V12.1378ZM22.0691 22.0689V19.862H19.8622V22.0689H22.0691ZM24.4923 15.4482C24.7118 15.4482 24.9223 15.361 25.0775 15.2058C25.2327 15.0506 25.3199 14.8401 25.3199 14.6206V7.44817C25.3199 7.22868 25.2327 7.01818 25.0775 6.86297C24.9223 6.70777 24.7118 6.62058 24.4923 6.62058H17.439C17.2195 6.62058 17.009 6.70777 16.8538 6.86297C16.6986 7.01818 16.6114 7.22868 16.6114 7.44817V14.6206C16.6114 14.8401 16.6986 15.0506 16.8538 15.2058C17.009 15.361 17.2195 15.4482 17.439 15.4482H24.4923ZM18.2666 8.27575H23.6647V13.793H18.2666V8.27575ZM24.8277 17.0967H22.6208V19.3036H24.8277V17.0967ZM22.6208 24.8275H24.8277V22.6206H22.6208V24.8275Z" fill="white"/>
</svg>
