<svg width="24" height="24" viewBox="0 0 24 24" fill="none" xmlns="http://www.w3.org/2000/svg">
<g clip-path="url(#clip0_2167_808)">
<path d="M9.49008 4.94172C9.50225 4.95359 9.51135 4.96824 9.5166 4.98441C9.52185 5.00058 9.5231 5.01778 9.52022 5.03453L9.22303 6.76699C9.19755 6.91558 9.21416 7.06833 9.27097 7.20798C9.32777 7.34763 9.42252 7.4686 9.54449 7.55721C9.66646 7.64582 9.81079 7.69854 9.96115 7.70941C10.1115 7.72028 10.2619 7.68886 10.3954 7.6187L11.9512 6.80074C11.9662 6.79281 11.983 6.78867 12 6.78867C12.017 6.78867 12.0338 6.79281 12.0488 6.80074L13.6046 7.6187C13.738 7.68886 13.8884 7.72028 14.0388 7.70941C14.1892 7.69854 14.3335 7.64582 14.4555 7.55721C14.5774 7.4686 14.6722 7.34763 14.729 7.20798C14.7858 7.06833 14.8024 6.91558 14.7769 6.76699L14.4798 5.03449C14.4769 5.01774 14.4782 5.00054 14.4834 4.98438C14.4887 4.96822 14.4978 4.95358 14.5099 4.94172L15.7686 3.71481C15.8766 3.60959 15.9529 3.47625 15.9891 3.32989C16.0252 3.18352 16.0197 3.02996 15.9731 2.88658C15.9265 2.7432 15.8407 2.61571 15.7255 2.51853C15.6102 2.42136 15.4701 2.35837 15.3209 2.33669L13.5814 2.08394C13.5646 2.08149 13.5486 2.07499 13.5348 2.06499C13.5211 2.055 13.51 2.04181 13.5024 2.02656L12.7245 0.450392C12.6578 0.315183 12.5546 0.201337 12.4266 0.121732C12.2985 0.0421272 12.1508 -6.10352e-05 12 -6.10352e-05C11.8492 -6.10352e-05 11.7015 0.0421272 11.5734 0.121732C11.4454 0.201337 11.3422 0.315183 11.2755 0.450392L10.4975 2.02661C10.49 2.04184 10.4789 2.05502 10.4651 2.065C10.4514 2.07499 10.4354 2.08149 10.4186 2.08394L8.67919 2.33669C8.52999 2.35836 8.38983 2.42134 8.27456 2.51852C8.15929 2.61569 8.07351 2.74318 8.02692 2.88656C7.98033 3.02995 7.97479 3.18351 8.01093 3.32988C8.04706 3.47624 8.12343 3.60958 8.23139 3.71481L9.49008 4.94172ZM8.69564 3.10385C8.70108 3.0849 8.71203 3.06801 8.72709 3.05531C8.74216 3.0426 8.76066 3.03466 8.78025 3.0325L10.5197 2.77975C10.6494 2.76093 10.7725 2.71086 10.8785 2.63385C10.9845 2.55684 11.0701 2.45521 11.1281 2.33772L11.906 0.761549C11.9147 0.744013 11.9281 0.72925 11.9447 0.718926C11.9613 0.708603 11.9804 0.703132 12 0.703132C12.0196 0.703132 12.0387 0.708603 12.0553 0.718926C12.0719 0.72925 12.0853 0.744013 12.094 0.761549L12.8719 2.33772C12.9299 2.45521 13.0155 2.55684 13.1215 2.63385C13.2275 2.71085 13.3506 2.76093 13.4803 2.77975L15.2197 3.0325C15.2391 3.03531 15.2573 3.04348 15.2723 3.05609C15.2872 3.0687 15.2984 3.08525 15.3044 3.10385C15.3104 3.12246 15.3112 3.14239 15.3065 3.16139C15.3018 3.18038 15.2918 3.19768 15.2778 3.21133L14.0191 4.43828C13.9253 4.52971 13.8552 4.64258 13.8147 4.76716C13.7742 4.89174 13.7646 5.0243 13.7868 5.15341L14.0839 6.88581C14.0872 6.90509 14.0851 6.92491 14.0777 6.94303C14.0703 6.96115 14.058 6.97684 14.0422 6.98834C14.0264 6.99984 14.0077 7.00668 13.9882 7.00809C13.9686 7.00951 13.9491 7.00544 13.9318 6.99635L12.376 6.17838C12.26 6.11742 12.131 6.08557 12 6.08557C11.869 6.08557 11.74 6.11742 11.624 6.17838L10.0682 6.99635C10.0509 7.00547 10.0314 7.00957 10.0119 7.00817C9.99234 7.00677 9.9736 6.99993 9.95777 6.98842C9.94193 6.97692 9.92963 6.96121 9.92226 6.94307C9.91489 6.92494 9.91275 6.9051 9.91608 6.88581L10.2132 5.15341C10.2354 5.02429 10.2258 4.89173 10.1853 4.76714C10.1448 4.64255 10.0747 4.52967 9.98086 4.43824L8.72217 3.21138C8.70759 3.19811 8.69728 3.18081 8.69255 3.16167C8.68783 3.14253 8.6889 3.12237 8.69564 3.10385ZM23.7678 9.52666C23.8703 9.42671 23.9428 9.30009 23.9771 9.16109C24.0114 9.0221 24.0061 8.87629 23.9619 8.74013C23.9177 8.60398 23.8362 8.48291 23.7268 8.39063C23.6173 8.29834 23.4842 8.23851 23.3426 8.21791L21.7582 7.9877C21.7479 7.9862 21.7381 7.98222 21.7297 7.97609C21.7212 7.96997 21.7144 7.96189 21.7098 7.95255L21.0012 6.51677C20.9378 6.3884 20.8398 6.28032 20.7182 6.20475C20.5966 6.12918 20.4563 6.08912 20.3132 6.08912C20.17 6.08912 20.0297 6.12918 19.9081 6.20475C19.7865 6.28032 19.6885 6.3884 19.6251 6.51677L18.9165 7.95255C18.9119 7.96188 18.9051 7.96996 18.8967 7.97608C18.8883 7.98221 18.8785 7.98619 18.8682 7.9877L17.2838 8.21791C17.1421 8.2385 17.009 8.29832 16.8995 8.3906C16.7901 8.48289 16.7086 8.60395 16.6644 8.74011C16.6201 8.87628 16.6149 9.0221 16.6492 9.1611C16.6835 9.30009 16.756 9.42672 16.8585 9.52666L18.005 10.6443C18.0125 10.6516 18.018 10.6605 18.0213 10.6704C18.0245 10.6803 18.0252 10.6908 18.0235 10.7011L17.7528 12.2791C17.7286 12.4202 17.7444 12.5653 17.7984 12.6979C17.8523 12.8305 17.9423 12.9454 18.0581 13.0295C18.1739 13.1137 18.311 13.1637 18.4538 13.1741C18.5965 13.1844 18.7394 13.1546 18.8661 13.088L20.2833 12.343C20.2925 12.3381 20.3027 12.3356 20.3131 12.3356C20.3235 12.3356 20.3338 12.3381 20.343 12.343L21.7602 13.088C21.8869 13.1546 22.0298 13.1844 22.1726 13.1741C22.3154 13.1637 22.4524 13.1137 22.5682 13.0295C22.684 12.9454 22.774 12.8305 22.828 12.6979C22.8819 12.5653 22.8977 12.4202 22.8735 12.2791L22.6028 10.7011C22.6011 10.6908 22.6019 10.6803 22.6051 10.6704C22.6083 10.6605 22.6139 10.6516 22.6213 10.6443L23.7678 9.52666ZM22.1305 10.1408C22.0414 10.2276 21.9747 10.3348 21.9363 10.4531C21.8979 10.5715 21.8888 10.6974 21.9098 10.82L22.1805 12.398C22.1825 12.4098 22.1812 12.4219 22.1767 12.433C22.1722 12.4441 22.1647 12.4537 22.155 12.4607C22.1453 12.4678 22.1338 12.472 22.1219 12.4728C22.1099 12.4737 22.098 12.4712 22.0874 12.4656L20.6702 11.7206C20.5601 11.6627 20.4375 11.6325 20.3131 11.6325C20.1887 11.6325 20.0662 11.6627 19.9561 11.7206L18.539 12.4656C18.5284 12.4712 18.5164 12.4737 18.5045 12.4729C18.4925 12.472 18.4811 12.4678 18.4714 12.4608C18.4617 12.4537 18.4541 12.4441 18.4496 12.433C18.4451 12.4219 18.4438 12.4098 18.4458 12.398L18.7165 10.82C18.7375 10.6974 18.7284 10.5715 18.69 10.4531C18.6516 10.3348 18.5849 10.2276 18.4958 10.1408L17.3493 9.02327C17.3407 9.0149 17.3346 9.00431 17.3318 8.99267C17.3289 8.98104 17.3293 8.96883 17.333 8.95743C17.3367 8.94604 17.3435 8.9359 17.3527 8.92818C17.3619 8.92045 17.373 8.91544 17.3849 8.91372L18.9693 8.68352C19.0924 8.66563 19.2093 8.61807 19.31 8.54494C19.4106 8.47182 19.492 8.37531 19.547 8.26375L20.2556 6.82797C20.2609 6.81724 20.2691 6.8082 20.2793 6.80188C20.2895 6.79556 20.3012 6.79221 20.3132 6.79221C20.3251 6.79221 20.3369 6.79556 20.347 6.80188C20.3572 6.8082 20.3654 6.81724 20.3707 6.82797L21.0793 8.26375C21.1343 8.37533 21.2157 8.47184 21.3163 8.54497C21.417 8.6181 21.5339 8.66565 21.657 8.68352L23.2414 8.91372C23.2533 8.91543 23.2644 8.92042 23.2736 8.92814C23.2828 8.93586 23.2896 8.94599 23.2933 8.95739C23.297 8.96878 23.2975 8.98099 23.2946 8.99263C23.2917 9.00426 23.2856 9.01486 23.277 9.02322L22.1305 10.1408ZM1.37873 10.6443C1.38619 10.6516 1.39176 10.6606 1.39498 10.6704C1.3982 10.6803 1.39896 10.6909 1.3972 10.7011L1.12655 12.2792C1.10236 12.4203 1.11814 12.5653 1.17209 12.6979C1.22603 12.8305 1.316 12.9454 1.43182 13.0296C1.54764 13.1137 1.68469 13.1638 1.82748 13.1741C1.97027 13.1844 2.1131 13.1546 2.23983 13.088L3.657 12.343C3.66621 12.3381 3.67647 12.3356 3.68688 12.3356C3.6973 12.3356 3.70755 12.3381 3.71677 12.343L5.13394 13.088C5.26067 13.1546 5.4035 13.1844 5.54629 13.1741C5.68907 13.1638 5.82613 13.1137 5.94195 13.0296C6.05776 12.9454 6.14773 12.8305 6.20168 12.6979C6.25563 12.5653 6.2714 12.4203 6.24722 12.2792L5.97656 10.7011C5.9748 10.6908 5.97556 10.6803 5.97877 10.6704C5.98198 10.6605 5.98754 10.6516 5.99498 10.6443L7.14155 9.5267C7.24405 9.42676 7.31654 9.30013 7.35084 9.16113C7.38513 9.02214 7.37986 8.87632 7.33561 8.74016C7.29137 8.60401 7.20992 8.48294 7.10046 8.39066C6.99101 8.29838 6.85792 8.23855 6.71625 8.21795L5.13183 7.9877C5.12153 7.9862 5.11174 7.98222 5.10333 7.97609C5.09491 7.96997 5.0881 7.96189 5.0835 7.95255L4.37489 6.51677V6.51681C4.31198 6.38807 4.21407 6.27966 4.09238 6.20401C3.97069 6.12836 3.83015 6.08853 3.68686 6.08908C3.54356 6.08853 3.403 6.12836 3.2813 6.20401C3.15959 6.27966 3.06166 6.38807 2.99873 6.51681L2.29017 7.9526C2.28557 7.96192 2.27877 7.96999 2.27036 7.9761C2.26195 7.98222 2.25218 7.9862 2.24189 7.9877L0.657422 8.21791C0.515741 8.2385 0.382648 8.29832 0.27319 8.3906C0.163732 8.48289 0.0822771 8.60395 0.0380344 8.74011C-0.00620822 8.87628 -0.0114733 9.0221 0.0228345 9.1611C0.0571423 9.30009 0.129655 9.42672 0.232172 9.52666L1.37873 10.6443ZM0.706781 8.95745C0.709925 8.94576 0.716572 8.9353 0.725831 8.92749C0.73509 8.91968 0.746518 8.91489 0.758578 8.91377L2.343 8.68356C2.46613 8.66569 2.58306 8.61814 2.68372 8.54502C2.78437 8.47189 2.86573 8.37537 2.92078 8.2638L3.62934 6.82802C3.63464 6.81728 3.64284 6.80825 3.65301 6.80193C3.66318 6.79561 3.67491 6.79226 3.68688 6.79226C3.69885 6.79226 3.71059 6.79561 3.72076 6.80193C3.73092 6.80825 3.73912 6.81728 3.74442 6.82802L4.45303 8.2638C4.50807 8.37536 4.58942 8.47186 4.69006 8.54499C4.7907 8.61812 4.90761 8.66567 5.03072 8.68356L6.61519 8.91377C6.62704 8.91549 6.63818 8.9205 6.64734 8.92821C6.65649 8.93593 6.66331 8.94606 6.66702 8.95745C6.67072 8.96884 6.67117 8.98104 6.66831 8.99267C6.66544 9.0043 6.65938 9.0149 6.65081 9.02327L5.50425 10.1408C5.41514 10.2276 5.3485 10.3348 5.31005 10.4532C5.2716 10.5715 5.26251 10.6974 5.28356 10.82L5.55422 12.398C5.55624 12.4098 5.55492 12.422 5.55041 12.433C5.5459 12.4441 5.53837 12.4537 5.52869 12.4608C5.519 12.4678 5.50754 12.472 5.49561 12.4729C5.48367 12.4737 5.47172 12.4712 5.46112 12.4657L4.04391 11.7206C3.93379 11.6627 3.81125 11.6324 3.68684 11.6324C3.56243 11.6324 3.43988 11.6627 3.32977 11.7206L1.91264 12.4656C1.90204 12.4712 1.89009 12.4737 1.87815 12.4729C1.8662 12.472 1.85473 12.4678 1.84504 12.4608C1.83535 12.4537 1.82782 12.4441 1.8233 12.433C1.81879 12.4219 1.81747 12.4098 1.8195 12.398L2.09016 10.82C2.11121 10.6974 2.10212 10.5715 2.06368 10.4531C2.02523 10.3348 1.95858 10.2276 1.86947 10.1408L0.722953 9.02327C0.71385 9.01526 0.707417 9.00465 0.704517 8.99288C0.701618 8.98111 0.702392 8.96873 0.706734 8.95741L0.706781 8.95745ZM6.48094 21.4895C6.48094 21.2809 6.41908 21.077 6.30319 20.9035C6.1873 20.7301 6.02258 20.5949 5.82986 20.5151C5.63714 20.4353 5.42508 20.4144 5.22049 20.4551C5.0159 20.4958 4.82797 20.5962 4.68047 20.7437C4.53297 20.8912 4.43252 21.0791 4.39183 21.2837C4.35113 21.4883 4.37202 21.7004 4.45185 21.8931C4.53167 22.0858 4.66685 22.2505 4.8403 22.3664C5.01374 22.4823 5.21765 22.5442 5.42625 22.5442C5.70588 22.5439 5.97396 22.4326 6.17168 22.2349C6.36941 22.0372 6.48063 21.7691 6.48094 21.4895ZM5.07469 21.4895C5.07469 21.42 5.09531 21.352 5.13394 21.2942C5.17257 21.2364 5.22747 21.1913 5.29171 21.1647C5.35595 21.1381 5.42664 21.1311 5.49484 21.1447C5.56303 21.1582 5.62568 21.1917 5.67484 21.2409C5.72401 21.2901 5.75749 21.3527 5.77106 21.4209C5.78462 21.4891 5.77766 21.5598 5.75105 21.624C5.72444 21.6883 5.67938 21.7432 5.62157 21.7818C5.56375 21.8204 5.49578 21.841 5.42625 21.841C5.33304 21.8409 5.24368 21.8039 5.17777 21.738C5.11186 21.6721 5.07479 21.5827 5.07469 21.4895ZM18.2586 16.102C18.2332 15.3742 17.6085 14.782 16.8661 14.782H13.0449L13.7977 12.78C13.8588 12.6175 13.886 12.4443 13.8777 12.271C13.8695 12.0976 13.8258 11.9278 13.7496 11.7719C13.6733 11.6161 13.566 11.4774 13.4342 11.3645C13.3025 11.2516 13.149 11.1667 12.9833 11.1153L12.9641 11.1093C12.7055 11.0263 12.4271 11.029 12.1702 11.1168C11.9133 11.2047 11.6915 11.3731 11.538 11.597C10.9092 12.515 10.2218 13.3914 9.48014 14.2208C8.88264 14.8879 8.25082 15.5235 7.58723 16.1249C7.44291 15.9524 7.26252 15.8138 7.05878 15.7186C6.85504 15.6235 6.63291 15.5742 6.40805 15.5742H0.351562C0.258322 15.5742 0.168901 15.6112 0.10297 15.6772C0.0370395 15.7431 0 15.8325 0 15.9258C0 16.019 0.0370395 16.1084 0.10297 16.1743C0.168901 16.2403 0.258322 16.2773 0.351562 16.2773H6.408C6.63 16.2776 6.84283 16.3659 6.99981 16.5229C7.15678 16.6798 7.24508 16.8927 7.24533 17.1147V22.4099C7.24508 22.6319 7.15678 22.8448 6.99981 23.0017C6.84283 23.1587 6.63 23.247 6.408 23.2473H0.351562C0.258322 23.2473 0.168901 23.2843 0.10297 23.3503C0.0370395 23.4162 0 23.5056 0 23.5989C0 23.6921 0.0370395 23.7815 0.10297 23.8475C0.168901 23.9134 0.258322 23.9504 0.351562 23.9504H6.408C6.80982 23.9506 7.19568 23.7932 7.48275 23.512C8.43994 23.7518 9.80128 23.997 11.8268 23.997C13.1206 23.9901 14.4128 23.9065 15.6968 23.7468C16.0294 23.7064 16.3358 23.5455 16.5579 23.2947C16.7801 23.0438 16.9028 22.7203 16.9027 22.3852V22.2577C16.9029 21.9921 16.8254 21.7322 16.6797 21.5101C16.9517 21.4108 17.1854 21.2279 17.3472 20.9877C17.5089 20.7475 17.5905 20.4622 17.5802 20.1728C17.5718 19.9241 17.4947 19.6826 17.3576 19.475C17.5803 19.3955 17.7785 19.2593 17.9325 19.0798C18.0864 18.9002 18.1908 18.6836 18.2354 18.4514C18.28 18.2191 18.2632 17.9792 18.1866 17.7554C18.11 17.5317 17.9764 17.3318 17.7989 17.1755C17.8253 17.1521 17.8508 17.1278 17.8754 17.1025C18.0037 16.9704 18.1038 16.8136 18.1697 16.6416C18.2356 16.4696 18.2658 16.286 18.2586 16.102H18.2586ZM15.1941 17.5209H16.8661C17.2341 17.5209 17.5436 17.8084 17.5559 18.1621C17.5593 18.2516 17.5445 18.3408 17.5126 18.4245C17.4807 18.5082 17.4322 18.5845 17.3701 18.649C17.308 18.7136 17.2335 18.7649 17.1511 18.7999C17.0687 18.835 16.98 18.8531 16.8905 18.8531H15.1941C15.1008 18.8531 15.0114 18.8901 14.9455 18.9561C14.8795 19.022 14.8425 19.1114 14.8425 19.2047C14.8425 19.2979 14.8795 19.3873 14.9455 19.4533C15.0114 19.5192 15.1008 19.5562 15.1941 19.5562H16.1873C16.5553 19.5562 16.8649 19.844 16.8776 20.1978C16.8809 20.2873 16.8661 20.3765 16.8341 20.4602C16.8022 20.5439 16.7536 20.6202 16.6915 20.6847C16.6293 20.7491 16.5548 20.8004 16.4724 20.8354C16.3899 20.8704 16.3013 20.8885 16.2117 20.8884H15.1941C15.1008 20.8884 15.0114 20.9254 14.9455 20.9914C14.8795 21.0573 14.8425 21.1467 14.8425 21.24C14.8425 21.3332 14.8795 21.4226 14.9455 21.4886C15.0114 21.5545 15.1008 21.5915 15.1941 21.5915H15.5334C15.71 21.5917 15.8793 21.662 16.0042 21.7868C16.1291 21.9117 16.1993 22.081 16.1995 22.2576V22.3851C16.1997 22.5483 16.1402 22.7058 16.0322 22.828C15.9242 22.9503 15.7751 23.0287 15.6132 23.0485C13.6029 23.2882 10.6579 23.522 7.8743 22.8817C7.92349 22.7292 7.94851 22.57 7.94845 22.4099V17.1146C7.94845 17.0725 7.9463 17.0309 7.94297 16.9897L8.0122 16.7158C8.01801 16.6928 8.03048 16.672 8.04806 16.6561C8.73393 16.0352 9.3868 15.3789 10.004 14.6897C10.7661 13.8376 11.4723 12.9371 12.1183 11.9939C12.1874 11.8945 12.2868 11.8201 12.4017 11.7817C12.5165 11.7433 12.6407 11.743 12.7558 11.7808L12.7749 11.7868C12.8491 11.8099 12.9178 11.8479 12.9768 11.8985C13.0358 11.9491 13.0838 12.0112 13.118 12.081C13.1521 12.1509 13.1716 12.2269 13.1753 12.3045C13.179 12.3822 13.1669 12.4597 13.1395 12.5325L12.3272 14.6929C12.2939 14.7816 12.2825 14.877 12.2942 14.971C12.3058 15.065 12.34 15.1548 12.3939 15.2327C12.4478 15.3105 12.5198 15.3742 12.6037 15.4182C12.6876 15.4621 12.7809 15.4851 12.8756 15.4851H16.8661C17.2341 15.4851 17.5435 15.7728 17.5559 16.1267C17.5592 16.2162 17.5445 16.3054 17.5125 16.3891C17.4806 16.4728 17.4321 16.5491 17.37 16.6136C17.3079 16.6781 17.2334 16.7295 17.151 16.7645C17.0686 16.7996 16.98 16.8177 16.8905 16.8178H15.1941C15.1008 16.8178 15.0114 16.8548 14.9455 16.9208C14.8795 16.9867 14.8425 17.0761 14.8425 17.1693C14.8425 17.2626 14.8795 17.352 14.9455 17.4179C15.0114 17.4839 15.1009 17.5209 15.1941 17.5209Z" fill="#1E1E1E"/>
</g>
<defs>
<clipPath id="clip0_2167_808">
<rect width="24" height="24" fill="white"/>
</clipPath>
</defs>
</svg>
