<svg width="24" height="24" viewBox="0 0 24 24" fill="none" xmlns="http://www.w3.org/2000/svg">
<path fill-rule="evenodd" clip-rule="evenodd" d="M10.3237 4.31627C10.7512 2.56124 13.2488 2.56124 13.6763 4.31627C13.7401 4.57999 13.8653 4.82492 14.0417 5.03112C14.2181 5.23732 14.4406 5.39897 14.6913 5.50291C14.9419 5.60684 15.2135 5.65014 15.4841 5.62927C15.7546 5.60839 16.0164 5.52394 16.2481 5.38279C17.7917 4.44227 19.558 6.20855 18.6175 7.75207C18.0099 8.74884 18.5488 10.0494 19.6829 10.325C21.439 10.7514 21.439 13.25 19.6829 13.6753C19.4191 13.7392 19.1741 13.8645 18.9679 14.041C18.7617 14.2175 18.6001 14.4402 18.4962 14.691C18.3924 14.9418 18.3493 15.2135 18.3703 15.4841C18.3914 15.7547 18.4761 16.0165 18.6175 16.2482C19.558 17.7917 17.7917 19.558 16.2481 18.6175C16.0164 18.4761 15.7546 18.3914 15.484 18.3704C15.2134 18.3493 14.9417 18.3924 14.6909 18.4963C14.4401 18.6001 14.2174 18.7617 14.0409 18.9679C13.8644 19.1741 13.7391 19.4191 13.6752 19.6829C13.2488 21.439 10.7501 21.439 10.3248 19.6829C10.2607 19.4192 10.1353 19.1744 9.95873 18.9684C9.78219 18.7623 9.55952 18.6008 9.30882 18.497C9.05812 18.3932 8.78646 18.35 8.51592 18.3709C8.24539 18.3919 7.98361 18.4764 7.75187 18.6175C6.20832 19.558 4.44201 17.7917 5.38254 16.2482C5.52369 16.0165 5.60816 15.7547 5.6291 15.4842C5.65003 15.2136 5.60684 14.942 5.50303 14.6913C5.39922 14.4406 5.23772 14.2179 5.03166 14.0414C4.8256 13.8648 4.58079 13.7394 4.31713 13.6753C2.56095 13.2489 2.56095 10.7502 4.31713 10.325C4.58093 10.2611 4.8259 10.1358 5.03211 9.95928C5.23831 9.78278 5.39991 9.56007 5.50375 9.3093C5.6076 9.05853 5.65074 8.78677 5.62968 8.51617C5.60862 8.24556 5.52394 7.98376 5.38254 7.75207C4.44201 6.20855 6.20832 4.44227 7.75187 5.38279C7.98356 5.52418 8.24537 5.60886 8.51597 5.62992C8.78658 5.65098 9.05834 5.60784 9.30912 5.504C9.5599 5.40016 9.7826 5.23856 9.95911 5.03236C10.1356 4.82616 10.2609 4.58119 10.3248 4.3174L10.3237 4.31627Z" stroke="white" stroke-width="2"/>
<path d="M10 12C10 13.1046 10.8954 14 12 14C13.1046 14 14 13.1046 14 12C14 10.8954 13.1046 10 12 10C10.8954 10 10 10.8954 10 12Z" stroke="white" stroke-width="2"/>
</svg>
