<svg width="21" height="20" viewBox="0 0 21 20" fill="none" xmlns="http://www.w3.org/2000/svg">
<path d="M17.9788 17.0578L14.0671 13.1469C15.2009 11.7857 15.7662 10.0398 15.6456 8.27244C15.5249 6.50506 14.7275 4.85223 13.4193 3.65779C12.111 2.46334 10.3926 1.81926 8.62157 1.85951C6.85053 1.89976 5.16318 2.62125 3.91054 3.87389C2.6579 5.12653 1.93641 6.81388 1.89616 8.58492C1.85591 10.356 2.5 12.0744 3.69444 13.3826C4.88888 14.6909 6.54171 15.4883 8.3091 15.6089C10.0765 15.7296 11.8224 15.1642 13.1835 14.0305L17.0945 17.9422C17.1525 18.0003 17.2215 18.0463 17.2973 18.0777C17.3732 18.1092 17.4545 18.1253 17.5366 18.1253C17.6188 18.1253 17.7001 18.1092 17.776 18.0777C17.8518 18.0463 17.9208 18.0003 17.9788 17.9422C18.0369 17.8841 18.083 17.8152 18.1144 17.7393C18.1458 17.6634 18.162 17.5821 18.162 17.5C18.162 17.4179 18.1458 17.3366 18.1144 17.2607C18.083 17.1848 18.0369 17.1159 17.9788 17.0578ZM3.16165 8.75C3.16165 7.63748 3.49155 6.54994 4.10963 5.62491C4.72771 4.69989 5.60622 3.97892 6.63405 3.55317C7.66189 3.12743 8.79289 3.01604 9.88403 3.23308C10.9752 3.45012 11.9775 3.98585 12.7641 4.77252C13.5508 5.55919 14.0865 6.56147 14.3036 7.65261C14.5206 8.74376 14.4092 9.87476 13.9835 10.9026C13.5577 11.9304 12.8368 12.8089 11.9117 13.427C10.9867 14.0451 9.89917 14.375 8.78665 14.375C7.29531 14.3733 5.86553 13.7802 4.811 12.7256C3.75646 11.6711 3.1633 10.2413 3.16165 8.75Z" fill="#9A9A9A"/>
</svg>
