<svg width="25" height="24" viewBox="0 0 25 24" fill="none" xmlns="http://www.w3.org/2000/svg">
<path d="M20.5 17.6484C20.3943 18.5035 20.348 18.8745 19.9531 19.708L13.8896 20.9599C14.029 20.0591 14.2146 19.364 14.5166 18.9472L20.5 17.6484ZM12.0547 11.7519L13.8662 11.3593V5.63374C14.5413 4.87589 14.9566 4.53558 15.7715 4.10542V10.9453L20.5 9.9189C20.3943 10.7738 20.3478 11.1443 19.9531 11.9775L15.7715 12.8613V14.7851L20.5 13.7841C20.3943 14.6392 20.348 15.0101 19.9531 15.8437L15.7715 16.707V16.7246L13.8662 17.1181V13.2636L12.0547 13.6464V16.0761L12.0234 16.082C11.6067 16.8127 11.0183 17.6906 10.4512 18.3916L4.5 19.5253C4.55336 18.7596 4.66448 18.3279 5.01074 17.5566L10.1494 16.4423V14.0498L5.38672 15.0576C5.44008 14.2919 5.55224 13.861 5.89844 13.0898L10.1494 12.166V4.56831C10.8245 3.81046 11.2398 3.47015 12.0547 3.03999V11.7519Z" fill="white"/>
</svg>
