<svg width="24" height="24" viewBox="0 0 24 24" fill="none" xmlns="http://www.w3.org/2000/svg">
<path d="M20.5222 10.8281H20.25V9.17651C20.25 9.0964 20.251 9.01577 20.2485 8.93519C21.1375 8.02885 21.6473 6.81744 21.6738 5.5481C21.7003 4.27876 21.2415 3.04714 20.391 2.10449C19.5405 1.16185 18.3624 0.579205 17.097 0.475431C15.8317 0.371658 14.5744 0.754571 13.5817 1.54605C13.1066 1.46285 12.6255 1.41948 12.1432 1.4164C7.6717 1.4164 4.03125 4.89757 4.03125 9.17651V10.8281H3.47784C2.3055 10.8281 1.35938 11.7264 1.35938 12.8551V16.3387C1.35938 17.4674 2.3055 18.375 3.47784 18.375H5.63756C5.68558 18.376 5.73329 18.3672 5.77782 18.3492C5.82235 18.3312 5.86277 18.3044 5.89665 18.2704C5.93052 18.2363 5.95714 18.1958 5.97491 18.1511C5.99267 18.1065 6.00121 18.0588 6 18.0108V11.183C6.00102 11.1355 5.99229 11.0883 5.97434 11.0443C5.95639 11.0002 5.9296 10.9604 5.89564 10.9271C5.86167 10.8938 5.82124 10.8679 5.77685 10.8509C5.73247 10.8339 5.68506 10.8261 5.63756 10.8281H4.78125V9.17651C4.78125 5.31096 8.08542 2.1664 12.141 2.1664C12.3927 2.16804 12.6458 2.18191 12.8956 2.20755C12.1082 3.12599 11.6816 4.29948 11.6955 5.50922C11.7093 6.71896 12.1627 7.88236 12.971 8.78251C13.7793 9.68266 14.8874 10.2581 16.0887 10.4016C17.29 10.545 18.5024 10.2467 19.5 9.56219V10.8281H18.6543C18.4472 10.8281 18.2812 10.9759 18.2812 11.183V18.0108C18.2812 18.0593 18.291 18.1074 18.3098 18.1522C18.3287 18.197 18.3563 18.2375 18.391 18.2715C18.4258 18.3054 18.467 18.3321 18.5122 18.3498C18.5574 18.3676 18.6057 18.3762 18.6543 18.375H19.7269L19.4335 18.7583C18.4907 19.9726 16.9597 20.667 15.3842 20.6073C15.2038 19.354 14.0826 18.3868 12.7297 18.3868C11.2515 18.3868 10.049 19.5434 10.049 20.9641C10.0506 21.3068 10.1227 21.6455 10.2609 21.9591C10.399 22.2727 10.6003 22.5545 10.852 22.787C11.3826 23.2843 12.0863 23.5547 12.8133 23.5407C13.5403 23.5267 14.233 23.2294 14.744 22.712C15.0999 22.3431 15.3275 21.8693 15.3931 21.361C15.4523 21.3628 15.5116 21.3641 15.5707 21.3641C17.3085 21.3641 18.9789 20.5722 20.0259 19.2238L20.676 18.3818C21.86 18.325 22.6406 17.6307 22.6406 16.6172V13.1338C22.6406 12.5891 22.425 12.0288 22.0421 11.5791C21.6244 11.0884 21.087 10.8281 20.5222 10.8281ZM5.25 17.625H3.47784C2.71903 17.625 2.10938 17.0539 2.10938 16.3387V12.8551C2.10938 12.1399 2.71903 11.5781 3.47784 11.5781H5.25V17.625ZM12.4485 5.44765C12.4485 4.60925 12.6971 3.78968 13.1629 3.09257C13.6287 2.39547 14.2907 1.85214 15.0653 1.53129C15.8398 1.21044 16.6922 1.12649 17.5145 1.29005C18.3367 1.4536 19.0921 1.85733 19.6849 2.45016C20.2777 3.04299 20.6815 3.79831 20.845 4.6206C21.0086 5.44288 20.9247 6.29521 20.6038 7.06978C20.283 7.84436 19.7397 8.50641 19.0426 8.9722C18.3455 9.43799 17.5259 9.6866 16.6875 9.6866C15.5636 9.68532 14.4862 9.23831 13.6915 8.44363C12.8968 7.64895 12.4498 6.5715 12.4485 5.44765ZM14.2013 22.1945C14.0134 22.3859 13.7888 22.5375 13.5409 22.6401C13.2931 22.7426 13.027 22.7941 12.7588 22.7914C11.6965 22.7914 10.799 21.9549 10.799 20.9648C10.799 19.9576 11.6651 19.1382 12.7297 19.1382C13.7942 19.1382 14.6603 19.9576 14.6603 20.9648C14.6603 20.9707 14.6603 20.9767 14.6607 20.9826C14.671 21.2053 14.6355 21.4277 14.5565 21.6361C14.4774 21.8446 14.3565 22.0346 14.2013 22.1945ZM21.8906 16.6172C21.8906 17.3681 21.1875 17.625 20.5222 17.625H19.0312V11.5781H20.5222C21.1453 11.5781 21.8906 12.2609 21.8906 13.1338V16.6172Z" fill="#1E1E1E"/>
<path d="M16.7167 2.07235C16.4436 2.06848 16.1724 2.11891 15.9189 2.2207C15.6654 2.32249 15.4347 2.47362 15.2401 2.66531C15.0455 2.85701 14.8909 3.08544 14.7853 3.33737C14.6797 3.58929 14.6252 3.85968 14.625 4.13283V4.50005H15.375V4.13283C15.375 3.89113 15.4418 3.65412 15.568 3.44799C15.6942 3.24185 15.8749 3.0746 16.0902 2.96471C16.3055 2.85482 16.547 2.80656 16.7879 2.82526C17.0289 2.84396 17.26 2.9289 17.4558 3.07068C17.6515 3.21247 17.8043 3.4056 17.8972 3.62874C17.9901 3.85188 18.0195 4.09635 17.9822 4.33516C17.9449 4.57397 17.8424 4.79783 17.6859 4.98202C17.5293 5.16621 17.325 5.30356 17.0953 5.37891C16.8664 5.45449 16.6674 5.60064 16.5267 5.7964C16.3861 5.99215 16.3111 6.22744 16.3125 6.46848V7.54693H17.0625V6.46848C17.0614 6.38561 17.0865 6.30452 17.1343 6.23683C17.1821 6.16915 17.2502 6.11835 17.3287 6.09174C17.7922 5.93991 18.1868 5.6286 18.4424 5.21317C18.6981 4.79775 18.798 4.30513 18.7246 3.82292C18.6512 3.34072 18.4091 2.90018 18.0415 2.57964C17.6738 2.25911 17.2044 2.07936 16.7167 2.07235Z" fill="#1E1E1E"/>
<path d="M17.0625 7.78125H16.3125V8.8125H17.0625V7.78125Z" fill="#1E1E1E"/>
</svg>
