<svg width="24" height="25" viewBox="0 0 24 25" fill="none" xmlns="http://www.w3.org/2000/svg">
<path d="M18.1499 9.64471L17.8499 18.725C17.8243 19.5026 17.4967 20.2397 16.9366 20.7798C16.3765 21.3199 15.628 21.6205 14.8499 21.6177H9.1499C8.37232 21.6205 7.62421 21.3204 7.06418 20.7809C6.50415 20.2414 6.17622 19.5051 6.1499 18.728L5.8499 9.64471C5.84333 9.4458 5.91606 9.25243 6.05207 9.10713C6.18808 8.96184 6.37624 8.87653 6.57515 8.86996C6.77406 8.8634 6.96743 8.93612 7.11273 9.07213C7.25802 9.20814 7.34333 9.3963 7.3499 9.59521L7.6499 18.6777C7.66484 19.0654 7.82944 19.4323 8.10914 19.7012C8.38885 19.9702 8.76188 20.1203 9.1499 20.12H14.8499C15.2384 20.1202 15.6119 19.9697 15.8917 19.7002C16.1714 19.4306 16.3357 19.063 16.3499 18.6747L16.6499 9.59521C16.6565 9.3963 16.7418 9.20814 16.8871 9.07213C17.0324 8.93612 17.2257 8.8634 17.4246 8.86996C17.6236 8.87653 17.8117 8.96184 17.9477 9.10713C18.0837 9.25243 18.1565 9.4458 18.1499 9.64471ZM19.1421 6.62296C19.1421 6.82187 19.0631 7.01264 18.9225 7.15329C18.7818 7.29395 18.5911 7.37296 18.3921 7.37296H5.6084C5.40949 7.37296 5.21872 7.29395 5.07807 7.15329C4.93742 7.01264 4.8584 6.82187 4.8584 6.62296C4.8584 6.42405 4.93742 6.23328 5.07807 6.09263C5.21872 5.95198 5.40949 5.87296 5.6084 5.87296H7.9334C8.17103 5.8736 8.40041 5.78581 8.57688 5.62666C8.75336 5.46751 8.86431 5.2484 8.88815 5.01196C8.94349 4.45733 9.20334 3.94316 9.61707 3.56964C10.0308 3.19613 10.5688 2.99001 11.1261 2.99146H12.8736C13.431 2.99001 13.969 3.19613 14.3827 3.56964C14.7965 3.94316 15.0563 4.45733 15.1116 5.01196C15.1355 5.2484 15.2464 5.46751 15.4229 5.62666C15.5994 5.78581 15.8288 5.8736 16.0664 5.87296H18.3914C18.5903 5.87296 18.7811 5.95198 18.9217 6.09263C19.0624 6.23328 19.1414 6.42405 19.1414 6.62296H19.1421ZM10.1901 5.87296H13.8111C13.7126 5.64777 13.6481 5.40915 13.6199 5.16496C13.6013 4.98009 13.5148 4.8087 13.377 4.684C13.2393 4.55929 13.0602 4.49015 12.8744 4.48996H11.1269C10.9411 4.49015 10.762 4.55929 10.6242 4.684C10.4865 4.8087 10.4 4.98009 10.3814 5.16496C10.3529 5.40919 10.289 5.64781 10.1901 5.87296ZM10.9454 17.2362V10.85C10.9454 10.6511 10.8664 10.4603 10.7257 10.3196C10.5851 10.179 10.3943 10.1 10.1954 10.1C9.99649 10.1 9.80572 10.179 9.66507 10.3196C9.52442 10.4603 9.4454 10.6511 9.4454 10.85V17.2392C9.4454 17.4381 9.52442 17.6289 9.66507 17.7695C9.80572 17.9102 9.99649 17.9892 10.1954 17.9892C10.3943 17.9892 10.5851 17.9102 10.7257 17.7695C10.8664 17.6289 10.9454 17.4381 10.9454 17.2392V17.2362ZM14.5559 17.2362V10.85C14.5559 10.6511 14.4769 10.4603 14.3362 10.3196C14.1956 10.179 14.0048 10.1 13.8059 10.1C13.607 10.1 13.4162 10.179 13.2756 10.3196C13.1349 10.4603 13.0559 10.6511 13.0559 10.85V17.2392C13.0559 17.4381 13.1349 17.6289 13.2756 17.7695C13.4162 17.9102 13.607 17.9892 13.8059 17.9892C14.0048 17.9892 14.1956 17.9102 14.3362 17.7695C14.4769 17.6289 14.5559 17.4381 14.5559 17.2392V17.2362Z" fill="#DB2524"/>
</svg>
