<svg width="22" height="22" viewBox="0 0 22 22" fill="none" xmlns="http://www.w3.org/2000/svg">
<path d="M17.875 2.75H4.125C3.76033 2.75 3.41059 2.89487 3.15273 3.15273C2.89487 3.41059 2.75 3.76033 2.75 4.125V17.875C2.75 18.2397 2.89487 18.5894 3.15273 18.8473C3.41059 19.1051 3.76033 19.25 4.125 19.25H17.875C18.2397 19.25 18.5894 19.1051 18.8473 18.8473C19.1051 18.5894 19.25 18.2397 19.25 17.875V4.125C19.25 3.76033 19.1051 3.41059 18.8473 3.15273C18.5894 2.89487 18.2397 2.75 17.875 2.75ZM17.875 4.125V13.0625H15.4086C15.2281 13.062 15.0493 13.0974 14.8826 13.1666C14.7159 13.2358 14.5646 13.3374 14.4375 13.4655L12.778 15.125H9.22195L7.5625 13.4655C7.43528 13.3373 7.28384 13.2356 7.11699 13.1664C6.95013 13.0973 6.77118 13.0619 6.59055 13.0625H4.125V4.125H17.875ZM17.875 17.875H4.125V14.4375H6.59055L8.25 16.097C8.37722 16.2252 8.52866 16.3269 8.69551 16.3961C8.86237 16.4652 9.04132 16.5006 9.22195 16.5H12.778C12.9587 16.5006 13.1376 16.4652 13.3045 16.3961C13.4713 16.3269 13.6228 16.2252 13.75 16.097L15.4095 14.4375H17.875V17.875ZM7.76359 9.42391C7.69967 9.36006 7.64896 9.28423 7.61437 9.20077C7.57977 9.11731 7.56196 9.02785 7.56196 8.9375C7.56196 8.84715 7.57977 8.75769 7.61437 8.67423C7.64896 8.59077 7.69967 8.51494 7.76359 8.45109L10.5136 5.70109C10.5774 5.63717 10.6533 5.58646 10.7367 5.55187C10.8202 5.51727 10.9097 5.49946 11 5.49946C11.0903 5.49946 11.1798 5.51727 11.2633 5.55187C11.3467 5.58646 11.4226 5.63717 11.4864 5.70109L14.2364 8.45109C14.3003 8.51497 14.351 8.5908 14.3855 8.67426C14.4201 8.75772 14.4379 8.84717 14.4379 8.9375C14.4379 9.02783 14.4201 9.11728 14.3855 9.20074C14.351 9.2842 14.3003 9.36003 14.2364 9.42391C14.1725 9.48778 14.0967 9.53845 14.0132 9.57302C13.9298 9.60759 13.8403 9.62538 13.75 9.62538C13.6597 9.62538 13.5702 9.60759 13.4868 9.57302C13.4033 9.53845 13.3275 9.48778 13.2636 9.42391L11.6875 7.84695V13.0625C11.6875 13.2448 11.6151 13.4197 11.4861 13.5486C11.3572 13.6776 11.1823 13.75 11 13.75C10.8177 13.75 10.6428 13.6776 10.5139 13.5486C10.3849 13.4197 10.3125 13.2448 10.3125 13.0625V7.84695L8.73641 9.42391C8.67256 9.48783 8.59673 9.53854 8.51327 9.57313C8.42981 9.60773 8.34035 9.62554 8.25 9.62554C8.15965 9.62554 8.07019 9.60773 7.98673 9.57313C7.90327 9.53854 7.82744 9.48783 7.76359 9.42391Z" fill="#9194F1"/>
</svg>
